<svg xmlns="http://www.w3.org/2000/svg" viewBox="0 0 1200 1200" role="img" aria-labelledby="title">
  <title id="title">Canova wrapping paper pattern</title>
  <rect width="1200" height="1200" fill="#F2E9D8"/>
  <defs>
    <g id="cmark">
      <path d="M80.7 74A39 39 0 1 1 80.7 26L66.9 36.8A21.5 21.5 0 1 0 66.9 63.2Z" fill="#FFC72C"/>
      <path d="M16 46c12-3 25 2 37 0 8-2 16-2 23 0 2 0 2 3 0 4-11 3-24 0-35 2-11 1-19-2-25-1-3 0-3-4 0-5Z" fill="#FFC72C"/>
      <rect x="15" y="52" width="61" height="5" rx="2.5" fill="#E6392E"/>
    </g>
  </defs>
  <g opacity="0.98">
    <g transform="translate(40 40) rotate(-6 50 50)"><use href="#cmark"/></g>
    <g transform="translate(270 20) rotate(6 50 50)"><use href="#cmark"/></g>
    <g transform="translate(500 45) rotate(-4 50 50)"><use href="#cmark"/></g>
    <g transform="translate(730 18) rotate(8 50 50)"><use href="#cmark"/></g>
    <g transform="translate(960 45) rotate(-5 50 50)"><use href="#cmark"/></g>
    <g transform="translate(150 250) rotate(7 50 50)"><use href="#cmark"/></g>
    <g transform="translate(380 275) rotate(-8 50 50)"><use href="#cmark"/></g>
    <g transform="translate(610 245) rotate(5 50 50)"><use href="#cmark"/></g>
    <g transform="translate(840 280) rotate(-6 50 50)"><use href="#cmark"/></g>
    <g transform="translate(1070 250) rotate(6 50 50)"><use href="#cmark"/></g>
    <g transform="translate(40 500) rotate(-5 50 50)"><use href="#cmark"/></g>
    <g transform="translate(270 480) rotate(7 50 50)"><use href="#cmark"/></g>
    <g transform="translate(500 510) rotate(-7 50 50)"><use href="#cmark"/></g>
    <g transform="translate(730 480) rotate(4 50 50)"><use href="#cmark"/></g>
    <g transform="translate(960 510) rotate(-4 50 50)"><use href="#cmark"/></g>
    <g transform="translate(150 735) rotate(5 50 50)"><use href="#cmark"/></g>
    <g transform="translate(380 760) rotate(-6 50 50)"><use href="#cmark"/></g>
    <g transform="translate(610 730) rotate(8 50 50)"><use href="#cmark"/></g>
    <g transform="translate(840 765) rotate(-5 50 50)"><use href="#cmark"/></g>
    <g transform="translate(1070 735) rotate(5 50 50)"><use href="#cmark"/></g>
    <g transform="translate(40 970) rotate(-7 50 50)"><use href="#cmark"/></g>
    <g transform="translate(270 950) rotate(5 50 50)"><use href="#cmark"/></g>
    <g transform="translate(500 980) rotate(-5 50 50)"><use href="#cmark"/></g>
    <g transform="translate(730 950) rotate(7 50 50)"><use href="#cmark"/></g>
    <g transform="translate(960 980) rotate(-6 50 50)"><use href="#cmark"/></g>
  </g>
</svg>
