<svg xmlns="http://www.w3.org/2000/svg" viewBox="0 0 1900 1150" role="img" aria-labelledby="title">
  <title id="title">Canova Burgers social media artboards</title>
  <rect width="1900" height="1150" fill="#F2E9D8"/>
  <style>
    .title{font:900 72px 'Noto Sans Display',Arial,sans-serif}.head{font:900 54px 'Noto Sans Display',Arial,sans-serif}.body{font:700 28px Inter,Arial,sans-serif}.small{font:700 22px Inter,Arial,sans-serif}
  </style>
  <text x="70" y="90" class="title" fill="#0D0D0D">SOCIAL & DELIVERY ARTBOARDS</text>
  <g transform="translate(70 160)">
    <rect width="560" height="560" rx="32" fill="#0D0D0D"/>
    <text x="45" y="100" class="head" fill="#F2E9D8">DOUBLE CARNE.</text>
    <text x="45" y="165" class="head" fill="#FFC72C">DOBLE QUESO.</text>
    <text x="45" y="230" class="head" fill="#E6392E">CERO EXCUSAS.</text>
    <rect x="45" y="280" width="470" height="190" rx="28" fill="#F2E9D8" opacity=".1"/>
    <text x="280" y="385" text-anchor="middle" class="body" fill="#F2E9D8">PRODUCT PHOTO</text>
    <text x="45" y="525" class="small" fill="#FFC72C">CANOVA BURGERS · MIAMI</text>
    <text x="0" y="610" class="body" fill="#0D0D0D">INSTAGRAM POST 1080 × 1080</text>
  </g>
  <g transform="translate(720 160)">
    <rect width="350" height="625" rx="32" fill="#0D0D0D"/>
    <text x="30" y="85" class="head" font-size="44" fill="#F2E9D8">TU ANTOJO</text>
    <text x="30" y="140" class="head" font-size="44" fill="#FFC72C">MERECE MÁS.</text>
    <rect x="30" y="185" width="290" height="300" rx="28" fill="#F2E9D8" opacity=".1"/>
    <text x="175" y="350" text-anchor="middle" class="small" fill="#F2E9D8">PHOTO / VIDEO</text>
    <rect x="55" y="525" width="240" height="62" rx="31" fill="#E6392E"/>
    <text x="175" y="566" text-anchor="middle" class="small" fill="#FFFFFF">ORDER NOW</text>
    <text x="0" y="675" class="body" fill="#0D0D0D">STORY 1080 × 1920</text>
  </g>
  <g transform="translate(1170 160)">
    <rect width="650" height="360" rx="32" fill="#0D0D0D"/>
    <text x="325" y="120" text-anchor="middle" class="head" fill="#F2E9D8">SMASH BURGERS</text>
    <text x="325" y="185" text-anchor="middle" class="head" fill="#FFC72C">FOR REAL HUNGER.</text>
    <rect x="135" y="230" width="380" height="80" rx="22" fill="#F2E9D8" opacity=".1"/>
    <text x="325" y="280" text-anchor="middle" class="small" fill="#F2E9D8">PRODUCT PHOTO AREA</text>
    <text x="0" y="410" class="body" fill="#0D0D0D">DELIVERY BANNER 1600 × 900</text>
  </g>
  <g transform="translate(1170 690)">
    <rect width="650" height="300" rx="32" fill="#0D0D0D"/>
    <text x="325" y="105" text-anchor="middle" class="head" fill="#F2E9D8">BIG FLAVOR.</text>
    <text x="325" y="175" text-anchor="middle" class="head" fill="#E6392E">NO EXCUSES.</text>
    <text x="325" y="240" text-anchor="middle" class="small" fill="#FFC72C">MIAMI, FL · DELIVERY & PICKUP</text>
    <text x="0" y="350" class="body" fill="#0D0D0D">FACEBOOK / WEB COVER</text>
  </g>
  <g transform="translate(720 900)">
    <circle cx="175" cy="110" r="105" fill="#0D0D0D"/>
    <text x="175" y="145" text-anchor="middle" class="title" font-size="105" fill="#FFC72C">C</text>
    <text x="0" y="260" class="body" fill="#0D0D0D">AVATAR</text>
  </g>
</svg>
