<svg xmlns="http://www.w3.org/2000/svg" viewBox="0 0 200 200"><rect width="200" height="200" rx="42" fill="#0D0D0D"/><defs><clipPath id="t"><rect width="200" height="86"/></clipPath><clipPath id="b"><rect y="114" width="200" height="86"/></clipPath></defs><path d="M161.46 148.02A78 78 0 1 1 161.46 51.98L133.88 73.53A43 43 0 1 0 133.88 126.47Z" fill="#FFC72C" clip-path="url(#t)"/><path d="M161.46 148.02A78 78 0 1 1 161.46 51.98L133.88 73.53A43 43 0 1 0 133.88 126.47Z" fill="#FFC72C" clip-path="url(#b)"/><path d="M31 91c23-5 49 5 73 0 17-3 33-3 46 0 3 1 4 6 1 8-22 5-47 0-69 3-22 2-39-3-51-1-5 1-6-7 0-10Z" fill="#FFC72C"/><rect x="29" y="103" width="121" height="9" rx="4.5" fill="#E6392E"/></svg>