<svg xmlns="http://www.w3.org/2000/svg" viewBox="0 0 250 360" role="img" aria-labelledby="title"><title id="title">Papas Canova</title><rect x="45" y="20" width="22" height="205" rx="10" fill="#FFC72C" stroke="#B66A00" stroke-width="4" transform="rotate(-8 56 225)" /><rect x="72" y="8" width="22" height="220" rx="10" fill="#FFC72C" stroke="#B66A00" stroke-width="4" transform="rotate(-3 83 228)" /><rect x="101" y="24" width="22" height="198" rx="10" fill="#FFC72C" stroke="#B66A00" stroke-width="4" transform="rotate(4 112 222)" /><rect x="130" y="4" width="22" height="225" rx="10" fill="#FFC72C" stroke="#B66A00" stroke-width="4" transform="rotate(1 141 229)" /><rect x="158" y="22" width="22" height="202" rx="10" fill="#FFC72C" stroke="#B66A00" stroke-width="4" transform="rotate(7 169 224)" /><rect x="185" y="14" width="22" height="212" rx="10" fill="#FFC72C" stroke="#B66A00" stroke-width="4" transform="rotate(11 196 226)" /><polygon points="22,132 228,132 195,340 55,340" fill="#E6392E" stroke="#F2E9D8" stroke-width="7" stroke-linejoin="round" /><path d="M37 174Q125 208 213 174" fill="none" stroke="#FFC72C" stroke-width="12" stroke-linecap="round" /><g transform="translate(74 176) scale(.085)"><defs>
    <filter id="grain" x="-4%" y="-4%" width="108%" height="108%" color-interpolation-filters="sRGB">
      <feTurbulence type="fractalNoise" baseFrequency=".65" numOctaves="3" seed="12" result="noise" />
      <feColorMatrix in="noise" type="matrix" values="0 0 0 0 .25 0 0 0 0 .18 0 0 0 0 .08 0 0 0 .18 0" result="coloredGrain" />
      <feComposite in="coloredGrain" in2="SourceAlpha" operator="in" result="clippedGrain" />
      <feBlend in="SourceGraphic" in2="clippedGrain" mode="multiply" />
    </filter>
    <mask id="topBunMask" maskUnits="userSpaceOnUse" x="0" y="0" width="1200" height="1200">
      <path fill="#FFFFFF" d="M202 499C195 330 278 194 420 128C532 76 666 72 786 112C940 163 1036 298 1074 435C1083 467 1064 496 1033 496H854C824 496 805 478 786 448C746 385 664 365 598 385C542 402 503 435 477 485C464 511 445 529 414 529H228C212 529 202 518 202 499Z" />
      <g fill="#000000">
        <ellipse cx="375" cy="278" rx="23" ry="10" transform="rotate(-41 375 278)" />
        <ellipse cx="485" cy="229" rx="23" ry="10" transform="rotate(-25 485 229)" />
        <ellipse cx="580" cy="169" rx="23" ry="10" transform="rotate(-12 580 169)" />
        <ellipse cx="763" cy="185" rx="23" ry="10" transform="rotate(12 763 185)" />
        <ellipse cx="879" cy="252" rx="23" ry="10" transform="rotate(27 879 252)" />
        <ellipse cx="651" cy="253" rx="23" ry="10" transform="rotate(17 651 253)" />
      </g>
    </mask>
  </defs>
  <g transform="translate(0 35)">
    <path fill="#FFC72C" filter="url(#grain)" mask="url(#topBunMask)" d="M202 499C195 330 278 194 420 128C532 76 666 72 786 112C940 163 1036 298 1074 435C1083 467 1064 496 1033 496H854C824 496 805 478 786 448C746 385 664 365 598 385C542 402 503 435 477 485C464 511 445 529 414 529H228C212 529 202 518 202 499Z" />
  </g>
  <path fill="#FFC72C" filter="url(#grain)" d="M228 618C286 585 342 608 401 620C462 632 504 606 560 603C631 597 674 619 734 608C801 596 859 571 923 578C975 583 1024 600 1046 622C1060 637 1054 660 1032 669C969 693 904 673 842 673C775 674 724 690 663 682C597 674 555 652 493 661C426 671 377 690 317 679C268 671 229 654 214 641C206 633 213 624 228 618Z" />
  <path fill="#FFC72C" filter="url(#grain)" d="M226 720C365 717 503 722 641 716C777 710 902 713 1032 719C1052 720 1064 730 1064 746C1064 763 1050 775 1029 776C895 780 772 777 638 780C499 783 366 779 228 781C209 781 197 770 197 753C197 735 208 722 226 720Z" />
  <path fill="#FFC72C" filter="url(#grain)" d="M230 807H412C448 807 469 825 487 852C520 900 566 928 624 931C695 935 756 902 789 847C808 817 830 806 862 806H1019C1059 806 1080 842 1066 875C1014 1000 916 1091 779 1128C657 1162 531 1154 420 1114C317 1077 245 999 215 892C202 846 208 807 230 807Z" />
</g></svg>
