<svg xmlns="http://www.w3.org/2000/svg" viewBox="0 0 1800 600" role="img" aria-labelledby="title desc"><title id="title">Logo horizontal Canova blanco y amarillo</title><desc id="desc">Isotipo Canova y wordmark horizontal sobre fondo transparente.</desc><defs><filter id="grain" x="-4%" y="-4%" width="108%" height="108%" color-interpolation-filters="sRGB">
      <feTurbulence type="fractalNoise" baseFrequency=".65" numOctaves="3" seed="12" result="noise" />
      <feColorMatrix in="noise" type="matrix" values="0 0 0 0 .25 0 0 0 0 .18 0 0 0 0 .08 0 0 0 .18 0" result="coloredGrain" />
      <feComposite in="coloredGrain" in2="SourceAlpha" operator="in" result="clippedGrain" />
      <feBlend in="SourceGraphic" in2="clippedGrain" mode="multiply" />
    </filter>
    <mask id="topBunMask" maskUnits="userSpaceOnUse" x="0" y="0" width="1200" height="1200">
      <path fill="#FFFFFF" d="M202 499C195 330 278 194 420 128C532 76 666 72 786 112C940 163 1036 298 1074 435C1083 467 1064 496 1033 496H854C824 496 805 478 786 448C746 385 664 365 598 385C542 402 503 435 477 485C464 511 445 529 414 529H228C212 529 202 518 202 499Z" />
      <g fill="#000000">
        <ellipse cx="375" cy="278" rx="23" ry="10" transform="rotate(-41 375 278)" />
        <ellipse cx="485" cy="229" rx="23" ry="10" transform="rotate(-25 485 229)" />
        <ellipse cx="580" cy="169" rx="23" ry="10" transform="rotate(-12 580 169)" />
        <ellipse cx="763" cy="185" rx="23" ry="10" transform="rotate(12 763 185)" />
        <ellipse cx="879" cy="252" rx="23" ry="10" transform="rotate(27 879 252)" />
        <ellipse cx="651" cy="253" rx="23" ry="10" transform="rotate(17 651 253)" />
      </g>
    </mask>
  </defs><g transform="translate(-25 5) scale(.49)"><g transform="translate(0 35)">
    <path fill="#FFC72C" filter="url(#grain)" mask="url(#topBunMask)" d="M202 499C195 330 278 194 420 128C532 76 666 72 786 112C940 163 1036 298 1074 435C1083 467 1064 496 1033 496H854C824 496 805 478 786 448C746 385 664 365 598 385C542 402 503 435 477 485C464 511 445 529 414 529H228C212 529 202 518 202 499Z" />
  </g>
  <path fill="#FFC72C" filter="url(#grain)" d="M228 618C286 585 342 608 401 620C462 632 504 606 560 603C631 597 674 619 734 608C801 596 859 571 923 578C975 583 1024 600 1046 622C1060 637 1054 660 1032 669C969 693 904 673 842 673C775 674 724 690 663 682C597 674 555 652 493 661C426 671 377 690 317 679C268 671 229 654 214 641C206 633 213 624 228 618Z" />
  <path fill="#FFC72C" filter="url(#grain)" d="M226 720C365 717 503 722 641 716C777 710 902 713 1032 719C1052 720 1064 730 1064 746C1064 763 1050 775 1029 776C895 780 772 777 638 780C499 783 366 779 228 781C209 781 197 770 197 753C197 735 208 722 226 720Z" />
  <path fill="#FFC72C" filter="url(#grain)" d="M230 807H412C448 807 469 825 487 852C520 900 566 928 624 931C695 935 756 902 789 847C808 817 830 806 862 806H1019C1059 806 1080 842 1066 875C1014 1000 916 1091 779 1128C657 1162 531 1154 420 1114C317 1077 245 999 215 892C202 846 208 807 230 807Z" />
</g><g transform="translate(395 -335) scale(1.06)"><g id="cream-edge" fill="#FFFFFF" fill-rule="evenodd"><path d="M1067 700L1069 700L1070 701L1073 701L1074 702L1076 702L1077 703L1080 703L1081 704L1084 704L1085 705L1087 705L1088 706L1090 706L1094 708L1101 709L1102 710L1104 710L1105 711L1107 711L1108 712L1110 712L1111 713L1116 714L1114 714L1111 712L1108 712L1105 710L1102 710L1098 708L1095 708L1091 706L1088 706L1087 705L1085 705L1081 703L1078 703L1074 701Z" /><path d="M546 675L540 675L539 676L531 676L530 677L524 677L523 678L516 678L515 679L510 679L509 680L503 680L502 681L495 681L494 682L492 682L494 682L495 681L502 681L503 680L509 680L510 679L518 679L519 678L524 678L525 677L532 677L533 676L539 676L540 675Z" /><path d="M626 669L615 669L614 670L602 670L601 671L591 671L590 672L582 672L590 672L591 671L603 671L604 670L616 670L617 669Z" /><path d="M729 664L746 664L745 663L737 663L736 664L735 663L733 663L732 664Z" /><path d="M907 661L902 664L900 664L896 666L893 666L892 667L888 667L887 668L861 668L860 667L839 667L838 666L835 666L837 667L857 667L858 668L887 668L888 667L893 667L894 666L896 666L897 665L902 664Z" /><path d="M675 640L676 642L676 644L677 645L677 648L678 649L678 651L680 655L679 653L679 651L678 650L678 647L676 644L676 642Z" /><path d="M632 640L632 654L632 647L633 646L633 641Z" /><path d="M282 635L282 651L283 653L286 656L287 656L284 654L282 650Z" /><path d="M931 633L925 645L913 657L912 657L909 660L915 655L916 655L922 649L922 648L927 642Z" /><path d="M448 632L448 637L447 638L447 645L446 646L446 653L445 654L445 663L444 664L444 670L444 666L445 665L445 658L446 657L445 655L446 654L446 647L447 646L447 638L448 637Z" /><path d="M318 632L318 634L317 635L317 638L316 639L316 642L314 646L310 650L303 653L307 651L309 651L313 648L316 642L316 640L317 639L317 635L318 634Z" /><path d="M384 630L384 636L383 637L383 643L382 644L382 652L381 653L381 659L380 660L380 667L379 668L379 676L378 677L378 684L377 685L377 697L378 699L381 701L378 698L377 696L377 685L378 684L378 677L379 676L379 670L380 669L380 661L381 660L381 653L382 652L382 644L383 643L383 637L384 636Z" /><path d="M778 627L778 632L779 633L780 638L784 646L786 648L786 649L793 656L794 656L799 660L803 662L808 663L809 664L813 664L810 664L809 663L804 662L798 659L796 657L795 657L785 647L779 635L779 631L778 630Z" /><path d="M658 589L659 591L659 593L660 594L660 596L661 597L661 599L662 600L662 602L663 603L663 606L664 607L664 609L666 612L666 615L668 618L668 621L670 624L670 627L671 628L671 630L672 632L672 630L671 629L671 627L670 626L670 624L669 623L669 621L668 620L668 618L667 617L667 615L666 614L666 612L665 611L665 609L663 605L663 602L660 596L660 594L659 593L659 591Z" /><path d="M569 582L569 620L568 621L568 667L569 669L572 672L574 672L575 673L578 673L575 673L574 672L572 672L569 669L568 667L568 625L569 624Z" /><path d="M880 577L880 579L879 580L879 584L876 590L871 594L869 595L867 595L869 595L873 593L876 590L876 589L879 585L879 581L880 580Z" /><path d="M1083 562L1083 567L1082 568L1082 571L1081 572L1081 577L1080 578L1080 581L1080 579L1081 578L1081 574L1082 573L1082 568L1083 567Z" /><path d="M549 539L549 551L550 552L550 571L551 572L551 591L551 570L550 569L550 551L549 550Z" /><path d="M571 533L571 545L570 546L570 580L570 554L571 553Z" /><path d="M958 526L958 542L959 543L959 573L960 574L959 576L959 581L960 582L960 629L959 630L959 661L959 640L960 639L960 572L959 571L959 541L958 540Z" /><path d="M1090 520L1090 525L1089 526L1089 531L1088 532L1088 537L1087 538L1087 543L1087 539L1088 538L1088 533L1089 532L1089 527L1090 526Z" /><path d="M1022 516L1022 521L1021 522L1021 527L1020 528L1020 535L1019 536L1019 540L1018 541L1018 546L1017 547L1017 552L1017 548L1018 547L1018 542L1019 541L1019 536L1020 535L1020 530L1021 529L1021 523L1022 522Z" /><path d="M485 511L484 512L484 515L485 516L484 518L484 520L485 521L485 533L482 536L480 537L475 537L474 538L470 538L475 538L476 537L480 537L481 536L483 536L485 534Z" /><path d="M465 498L465 501L464 502L464 506L462 510L462 514L461 515L461 519L460 520L460 525L459 526L459 530L458 531L458 538L460 540L462 540L458 538L458 531L459 530L459 527L460 526L460 521L461 520L461 516L462 515L462 512L463 511L463 507L464 506L464 502L465 501Z" /><path d="M236 488L236 490L235 491L235 494L234 495L234 498L233 499L233 502L232 503L232 506L231 507L231 510L230 511L230 514L229 515L229 519L228 520L228 523L227 524L227 528L226 529L225 538L225 534L226 533L227 524L228 523L228 520L229 519L229 516L230 515L230 512L231 511L231 507L232 506L232 503L233 502L234 495L236 491Z" /><path d="M1095 484L1095 491L1094 492L1094 497L1093 498L1093 505L1093 500L1094 499L1094 493L1095 492Z" /><path d="M483 465L483 478L484 480L484 475L483 474Z" /><path d="M331 461L329 461L328 462L326 462L322 464L319 467L318 467L318 468L316 470L313 476L313 478L312 479L312 482L310 486L310 490L309 491L309 494L308 495L308 497L308 495L309 494L309 491L310 490L310 487L311 486L311 483L312 482L312 480L313 479L313 477L314 476L314 474L315 472L321 465L322 465L326 462Z" /><path d="M879 460L879 469L880 470L880 480L880 467L879 466Z" /><path d="M778 458L777 459L777 546L776 547L776 551L777 552L777 557L776 558L776 589L777 587L777 583L776 581L777 580L777 473L778 472Z" /><path d="M575 438L575 452L574 453L574 472L574 456L575 455Z" /><path d="M481 437L479 440L479 443L477 447L477 450L476 451L476 454L475 455L475 458L474 459L474 462L473 463L473 466L472 467L471 474L471 471L472 470L472 467L473 466L474 459L476 455L476 451L477 450L477 447L479 443L479 440L481 438L482 439L482 445L482 438Z" /><path d="M832 436L832 440L831 441L831 510L831 456L832 455L831 452L832 451Z" /><path d="M866 421L868 421L874 427L876 431L876 435L877 436L877 441L877 435L876 434L876 431L875 430L875 428L874 426L870 422L868 421Z" /><path d="M842 420L840 420L838 421L834 425L832 429L832 433L832 430L833 429L833 427L839 421Z" /><path d="M542 406L542 409L543 410L543 412L542 413L543 414L543 427L543 407Z" /><path d="M1174 402L1177 403L1186 412L1186 413L1186 412L1180 405Z" /><path d="M1107 395L1107 400L1106 401L1106 409L1105 410L1105 416L1104 417L1104 423L1103 424L1103 431L1102 432L1102 439L1101 440L1101 445L1100 446L1100 453L1099 454L1099 460L1098 461L1098 468L1097 469L1097 476L1096 477L1096 480L1096 477L1097 476L1097 469L1098 468L1098 462L1099 461L1099 455L1100 454L1100 447L1101 446L1101 441L1102 440L1102 433L1103 432L1103 426L1104 425L1104 418L1105 417L1105 410L1106 409L1106 402L1107 401Z" /><path d="M699 371L699 421L698 422L698 430L699 429L699 374L700 373Z" /><path d="M541 367L541 385L542 386L542 403L542 381L541 380Z" /><path d="M493 364L486 364L485 365L480 365L479 366L473 366L472 367L466 367L465 368L461 368L460 369L455 369L454 370L451 370L454 370L455 369L460 369L461 368L467 368L468 367L474 367L475 366L480 366L481 365L487 365L488 364Z" /><path d="M760 363L760 408L760 374L761 373L761 371L760 370Z" /><path d="M795 360L788 367L788 368L786 370L782 378L782 381L781 382L781 385L780 386L780 392L779 393L779 413L779 393L780 392L780 386L782 382L782 379L783 378L783 376L785 372L787 370L789 366Z" /><path d="M530 359L527 359L526 360L517 360L516 361L513 361L518 361L519 360L528 360Z" /><path d="M612 356L600 356L599 357L588 357L587 358L585 358L583 359L580 362L580 363L580 362L583 359L585 358L591 358L592 357L602 357L603 356Z" /></g><g id="cream-soft" fill="#FFFFFF" fill-rule="evenodd"><path d="M229 742L231 742L232 741L233 743L245 743L246 742L238 742L237 743L236 742L233 742L232 741L230 741Z" /><path d="M295 729L293 728L290 730L287 730L286 732L285 731L283 732L281 732L283 733L284 731L286 732L287 731L292 730L293 728Z" /><path d="M311 724L309 723L308 724L303 725L302 727L300 726L302 727L305 725L308 725L309 723Z" /><path d="M333 717L331 716L330 718L328 717L327 718L325 718L324 720L322 719L324 720L327 718L330 718L331 717Z" /><path d="M1236 691L1236 716L1237 717L1236 720L1237 721L1237 725L1237 698L1236 697Z" /><path d="M1236 676L1236 678L1235 679L1235 686L1236 686L1236 684L1235 683L1236 682Z" /><path d="M482 665L482 669L483 670L483 673L482 674L482 676L483 676L483 667Z" /><path d="M694 663L706 663L707 664L708 663L715 663L716 664L720 664L721 663L723 663L724 664L728 664L729 663L732 663Z" /><path d="M759 660L751 664L750 663L749 664L748 663L746 663L747 664L753 664L755 662L756 663L756 662L758 660Z" /><path d="M208 660L208 667L209 668L208 670L209 668L209 663L208 662Z" /><path d="M681 659L681 660L684 663L686 664L689 663L685 663L682 660L682 659Z" /><path d="M1064 652L1064 657L1063 658L1063 661L1062 662L1063 665L1063 660L1064 659L1064 656L1065 655Z" /><path d="M555 650L555 658L554 659L554 661L555 662L554 664L554 666L555 667Z" /><path d="M1049 649L1048 650L1049 652L1047 655L1048 658L1046 659L1046 662L1047 662L1047 659L1048 658L1048 653L1049 652L1048 650Z" /><path d="M633 647L633 654L632 655L632 657L633 658L632 659L632 661L633 662Z" /><path d="M481 638L481 655L482 656L482 661L482 642L481 641L482 638Z" /><path d="M210 627L210 634L211 633L211 629Z" /><path d="M340 621L339 620L335 622L332 622L329 624L327 624L327 625L329 624L331 624L332 622L334 623L335 622Z" /><path d="M479 612L478 613L480 616L480 635L480 633L481 632L481 620L480 619L480 614L478 613Z" /><path d="M553 608L553 611L552 612L552 621L552 617L553 616Z" /><path d="M777 597L776 597L776 615L776 605L777 604Z" /><path d="M856 595L858 595L859 596L868 596L866 595Z" /><path d="M633 573L633 588L634 589L633 590L634 591L634 597L633 598L634 599L634 604L634 583L633 582Z" /><path d="M1065 564L1066 566L1066 568L1064 570L1065 573L1063 575L1063 578L1064 579L1062 581L1062 584L1063 585L1063 583L1062 581L1064 579L1064 574L1065 573L1065 569L1066 568L1066 566Z" /><path d="M882 551L881 553L881 560L882 561L881 564L882 563L882 556L881 555L882 553Z" /><path d="M832 546L831 546L831 568L831 554L832 553Z" /><path d="M1011 534L1010 536L1010 547L1010 543L1011 542Z" /><path d="M548 530L548 536L549 538L549 532Z" /><path d="M638 525L637 526L635 526L635 534L636 535L636 543L636 527L638 526Z" /><path d="M883 516L882 517L883 519L883 531L882 532L882 543L883 544L883 548L883 519L882 518Z" /><path d="M1010 513L1010 515L1009 516L1009 527L1010 525L1009 523L1010 522Z" /><path d="M881 493L882 495L882 500L881 501L881 510L882 512L882 510L881 509L881 507L882 506L882 495Z" /><path d="M483 479L483 486L484 487L484 493L485 494L485 499L484 500L484 503L485 504L485 509L484 511L485 510L485 492L484 491L484 487L483 486L484 484L484 481Z" /><path d="M1027 467L1027 473L1028 475L1028 469Z" /><path d="M832 456L832 510L831 511L831 542L832 542Z" /><path d="M878 440L877 442L877 448L878 449L878 458L879 459L878 457L878 455L879 454L879 451L877 448L877 445L878 444Z" /><path d="M932 433L932 438L933 439L933 444L934 443L934 441L932 438L933 436L933 433Z" /><path d="M1030 431L1030 436L1031 437L1031 440L1031 432Z" /><path d="M841 419L843 420L859 420L858 419L851 419L850 420L847 420L846 419Z" /><path d="M1031 417L1031 423L1032 424L1032 429L1032 418Z" /><path d="M929 412L929 415L930 416L930 422L931 422L931 419L930 418L930 412Z" /><path d="M576 410L576 417L577 418L577 421L577 412Z" /><path d="M270 408L267 411L266 410L263 413L264 414L262 416ZM263 413L264 412L265 413L264 414ZM264 412L265 411L266 412L265 413ZM265 411L266 410L267 411L266 412Z" /><path d="M1032 403L1032 408L1033 409L1032 411L1032 414L1033 414L1032 412L1033 411L1033 404Z" /><path d="M778 400L778 421L779 422L779 437L779 414L778 413Z" /><path d="M577 393L577 398L578 399L578 403L578 394Z" /><path d="M321 392L319 391L318 392L309 393L309 394L311 394L312 393L315 393L316 392Z" /><path d="M1033 389L1033 400L1034 402L1034 390Z" /><path d="M382 380L390 380L392 379L383 379Z" /><path d="M1044 376L1043 375L1038 375L1037 377L1034 379L1035 382L1035 379L1038 376Z" /><path d="M986 368L986 369L991 369L993 370L993 369Z" /><path d="M977 367L978 368L984 368L982 367Z" /><path d="M938 366L937 371L938 372L938 375L939 376L939 380L940 380L939 378L939 376L938 375L939 374L937 371L938 370L938 367L939 366Z" /><path d="M940 364L942 364L943 363L944 364L945 363L946 364L953 364L954 365L959 365L957 364L949 364L948 363L941 363Z" /><path d="M798 359L797 358L794 362L793 361L789 365L790 366L796 360L797 358ZM789 365L790 364L791 365L790 366ZM790 364L791 363L792 364L791 365ZM791 363L792 362L793 363L792 364ZM792 362L793 361L794 362L793 363Z" /><path d="M846 355L857 355L858 354L862 354L852 354L851 355Z" /><path d="M618 356L622 356L623 355L635 355L636 354L638 354L633 354L632 355L630 354L626 354L622 356Z" /><path d="M830 353L831 354L843 354L843 353L836 353L835 354Z" /><path d="M700 356L701 356L704 353L706 353L707 352L708 353L753 353L754 352L756 353L759 356L760 356L759 356L757 354L757 353L755 352L749 352L748 353L746 352L744 352L743 353L735 353L734 352L732 353L724 353L723 352L721 352L720 353L713 353L712 352L706 352L705 353L703 353L702 355L701 354L702 355Z" /></g><g id="cream" fill="#FFFFFF" fill-rule="evenodd"><path d="M1113 389L1111 390L1112 393L1110 396L1107 397L1109 399L1109 404L1106 405L1108 406L1109 411L1105 414L1107 415L1107 420L1104 422L1106 423L1105 435L1102 435L1104 437L1104 443L1101 443L1103 445L1101 464L1098 464L1100 466L1100 473L1097 474L1099 475L1099 479L1096 480L1098 483L1098 488L1095 488L1097 490L1097 495L1094 495L1096 497L1095 509L1092 509L1094 515L1091 516L1093 518L1093 522L1090 523L1092 524L1089 547L1086 547L1088 549L1084 576L1081 591L1078 592L1080 593L1080 596L1077 597L1079 598L1074 624L1071 624L1073 629L1067 656L1064 658L1066 660L1063 662L1065 663L1065 666L1062 667L1064 668L1063 675L1060 675L1062 680L1059 694L1062 700L1064 698L1065 701L1068 699L1069 702L1070 700L1096 707L1096 710L1101 708L1119 714L1120 717L1121 715L1124 717L1124 715L1126 713L1128 714L1129 712L1127 709L1130 708L1128 707L1128 704L1131 701L1129 698L1132 696L1130 695L1130 692L1133 690L1131 689L1131 685L1134 683L1132 682L1132 678L1135 677L1133 676L1134 667L1137 665L1135 664L1135 660L1138 659L1136 658L1136 654L1139 653L1137 652L1138 647L1140 645L1145 645L1149 647L1148 649L1153 647L1161 649L1162 652L1165 650L1168 653L1166 655L1169 657L1169 664L1167 665L1167 669L1170 671L1170 683L1168 685L1170 686L1171 691L1171 713L1169 714L1171 715L1172 729L1175 732L1188 736L1189 739L1191 737L1192 740L1193 738L1206 742L1207 745L1208 743L1212 744L1213 747L1215 745L1216 748L1217 746L1233 748L1235 745L1237 746L1235 744L1235 732L1238 732L1238 735L1238 727L1236 726L1236 699L1238 698L1238 689L1235 687L1235 677L1237 674L1236 676L1233 674L1236 663L1235 665L1233 664L1232 648L1234 646L1231 646L1231 641L1233 638L1229 638L1232 631L1229 630L1229 626L1231 624L1228 624L1230 617L1229 619L1227 618L1227 612L1225 611L1225 601L1227 599L1224 598L1224 594L1226 592L1224 593L1222 591L1225 587L1222 586L1222 582L1224 581L1222 581L1221 578L1223 575L1220 575L1219 566L1221 565L1218 564L1218 561L1220 560L1217 559L1219 553L1218 555L1216 554L1216 550L1218 548L1216 549L1215 546L1217 544L1215 544L1214 540L1212 539L1215 534L1212 533L1214 529L1212 529L1211 526L1213 524L1210 523L1208 518L1211 515L1208 514L1210 511L1207 509L1207 507L1209 505L1206 505L1206 502L1208 501L1205 500L1207 497L1204 496L1206 493L1203 491L1203 489L1205 488L1202 487L1204 483L1201 482L1201 479L1203 478L1201 478L1200 475L1202 473L1199 473L1199 470L1201 469L1199 469L1198 467L1200 466L1196 464L1199 461L1196 460L1198 457L1195 455L1197 452L1194 451L1196 448L1192 446L1192 444L1195 442L1192 441L1194 436L1191 436L1191 433L1193 432L1190 431L1190 428L1192 427L1189 426L1191 423L1188 422L1187 412L1185 414L1177 403L1173 404L1164 402L1163 399L1160 401L1159 398L1158 400L1151 399L1150 396L1149 398L1146 398L1145 395L1142 397L1134 395L1132 392L1130 394L1124 390L1121 392L1120 389L1119 391L1114 391ZM1149 490L1153 490L1155 494L1153 495L1156 497L1156 500L1154 501L1157 503L1157 505L1155 506L1156 506L1158 509L1158 511L1156 512L1156 513L1159 515L1157 518L1160 520L1161 529L1159 530L1162 532L1162 535L1160 536L1163 538L1163 543L1161 544L1164 546L1164 550L1162 551L1165 553L1165 556L1163 557L1164 557L1166 560L1166 563L1164 564L1164 565L1165 565L1167 568L1167 575L1166 576L1164 575L1165 576L1164 578L1162 578L1161 575L1160 577L1158 577L1157 576L1158 574L1155 576L1154 573L1153 575L1151 575L1149 572L1149 573L1147 574L1145 571L1144 573L1141 573L1138 571L1139 569L1141 570L1140 568L1138 567L1139 561L1141 560L1139 559L1139 553L1142 551L1140 550L1140 545L1141 543L1143 542L1141 541L1141 538L1144 536L1142 535L1142 530L1145 528L1143 527L1143 523L1146 521L1144 520L1144 514L1147 513L1145 512L1145 508L1146 506L1148 505L1146 504L1146 499L1149 498L1147 497L1147 492ZM1148 488L1150 485L1152 485L1154 489L1153 490L1149 490Z" /><path d="M396 381L395 383L378 383L377 381L375 384L370 382L368 385L364 383L363 386L360 386L359 384L357 387L349 388L348 386L346 389L342 387L340 390L338 388L336 391L329 392L328 390L326 393L324 391L322 394L320 394L319 392L316 395L308 397L305 395L303 398L300 396L299 399L296 397L294 400L292 398L291 401L287 401L282 404L280 402L274 408L270 408L268 410L269 412L265 416L263 415L264 417L258 426L255 426L254 428L256 430L246 463L243 464L245 467L242 468L244 469L242 478L239 479L241 481L238 482L240 485L237 486L239 489L236 490L238 493L234 509L231 510L233 513L230 514L232 515L231 522L228 523L230 524L230 526L227 528L229 531L226 532L228 533L228 536L225 537L227 538L227 541L224 543L226 546L223 548L225 551L222 553L224 556L221 558L223 561L220 563L222 566L219 568L221 573L218 575L220 576L220 580L217 581L219 582L219 585L216 586L218 587L218 591L215 594L217 595L217 598L214 601L216 606L213 610L215 615L212 618L214 620L214 626L211 627L213 628L213 634L210 638L210 643L212 644L211 652L209 653L209 660L211 661L211 708L209 709L211 714L209 715L212 718L212 722L210 723L215 729L214 732L216 731L219 735L227 740L238 743L246 742L248 744L249 741L253 743L251 742L252 740L259 739L260 741L261 738L264 740L265 737L271 735L275 737L274 735L278 733L281 735L282 732L288 730L291 732L291 730L294 728L297 730L298 727L300 729L301 726L305 725L306 727L307 724L326 718L328 720L329 717L338 714L340 716L341 713L343 715L344 712L347 711L348 713L349 710L352 711L354 710L354 707L359 705L358 703L361 696L364 694L362 693L362 690L365 688L363 687L363 681L366 678L364 677L364 670L367 667L365 665L365 660L368 657L366 656L366 650L369 649L367 647L367 642L370 638L368 637L368 632L371 628L369 626L370 619L361 614L363 615L362 617L348 621L345 619L344 622L342 620L341 623L339 621L338 624L336 622L335 625L331 626L330 624L329 627L327 625L326 628L319 631L318 633L321 636L316 648L313 648L312 652L303 656L301 654L300 657L298 655L298 657L294 659L288 659L282 653L281 643L283 642L284 645L284 642L282 641L283 622L286 622L284 620L287 593L290 592L288 591L288 586L291 586L289 584L291 570L294 569L292 568L292 565L295 564L293 563L296 545L298 537L301 536L299 535L302 519L305 518L303 517L313 476L316 470L321 468L321 465L324 466L324 463L335 460L336 462L337 459L340 459L345 463L346 474L344 475L347 476L358 473L361 475L362 472L365 474L366 471L369 473L370 470L375 469L376 471L377 468L380 470L382 467L384 469L385 466L390 466L392 464L392 459L395 458L393 454L396 453L394 450L397 449L395 446L398 445L396 442L399 441L397 440L397 438L400 436L398 434L401 433L399 430L402 429L400 426L403 425L401 422L404 422L402 420L402 418L405 417L403 414L406 413L404 410L407 409L405 408L408 406L406 403L409 402L406 400L408 398L406 391L401 386L401 384L399 385Z" /><path d="M941 364L938 368L940 370L938 373L941 375L939 377L942 381L940 382L943 384L941 388L944 388L942 393L945 394L943 397L946 399L946 402L944 403L947 404L947 408L945 410L948 412L946 416L949 418L947 423L950 426L948 429L951 432L949 439L952 440L952 445L950 447L953 449L953 453L951 455L954 458L954 463L952 465L955 467L955 472L953 474L956 478L956 484L954 485L957 487L957 493L955 495L958 497L958 502L956 503L958 504L959 517L957 518L960 522L960 531L958 534L961 537L961 554L959 557L962 559L962 649L959 653L961 656L961 671L959 672L961 672L963 676L964 674L971 675L972 678L973 676L976 676L977 679L980 677L982 680L983 678L990 679L991 682L992 680L994 680L995 683L996 681L999 681L1004 685L1007 683L1009 686L1011 684L1012 687L1013 685L1016 685L1017 688L1020 686L1021 689L1025 687L1026 690L1027 688L1030 688L1031 691L1032 689L1035 691L1041 685L1041 683L1044 682L1042 680L1045 665L1048 665L1046 663L1047 656L1050 654L1047 651L1051 650L1049 648L1049 646L1052 645L1050 644L1051 637L1054 636L1052 635L1052 632L1055 631L1052 627L1054 626L1062 582L1065 581L1063 580L1063 576L1066 575L1064 574L1064 571L1067 570L1065 569L1065 565L1068 564L1066 563L1069 540L1071 529L1074 528L1072 527L1074 509L1076 508L1077 510L1075 503L1078 502L1076 501L1077 490L1080 490L1078 488L1081 462L1084 461L1082 460L1083 448L1086 447L1084 446L1085 433L1088 433L1086 431L1086 426L1089 426L1087 419L1090 419L1088 417L1088 411L1091 411L1089 409L1089 404L1092 402L1090 401L1090 395L1093 394L1091 393L1093 390L1091 390L1087 384L1085 385L1084 383L1083 385L1080 385L1078 382L1077 384L1075 384L1073 381L1072 383L1069 383L1067 380L1064 382L1062 379L1059 381L1057 378L1056 380L1053 380L1052 377L1049 379L1047 376L1044 378L1036 378L1037 389L1034 413L1035 415L1032 416L1034 418L1034 430L1032 431L1031 428L1031 431L1033 432L1033 441L1030 442L1032 444L1031 466L1028 467L1030 468L1030 476L1027 476L1029 478L1029 484L1026 486L1028 488L1028 495L1025 496L1027 497L1026 511L1023 512L1025 513L1025 517L1022 519L1024 521L1024 526L1021 527L1023 528L1023 531L1020 533L1022 534L1019 557L1018 561L1015 562L1017 563L1016 569L1013 570L1011 565L1011 553L1013 552L1013 549L1009 548L1010 535L1012 534L1009 528L1009 514L1011 511L1007 509L1008 501L1010 500L1010 493L1008 496L1007 487L1009 484L1006 482L1005 478L1006 472L1008 471L1008 468L1005 468L1005 459L1007 456L1004 454L1004 445L1006 442L1003 442L1003 435L1005 432L1002 430L1002 422L1004 420L1001 419L1001 413L1003 412L1003 409L1000 408L1000 403L1002 401L999 398L999 394L1001 392L998 389L1000 384L997 382L997 379L999 378L997 375L998 373L996 373L995 370L993 372L992 369L987 371L986 368L979 370L977 367L975 369L971 369L969 366L967 368L963 368L962 365L959 365L955 368L952 364L949 366L942 366Z" /><path d="M538 361L537 363L517 363L514 361L514 364L508 364L506 362L505 365L501 365L499 363L498 366L493 366L492 364L489 368L480 368L479 366L476 366L479 368L472 369L470 367L470 370L463 368L465 369L464 371L460 371L458 369L457 372L454 372L453 370L452 373L445 373L442 376L443 379L440 388L437 389L439 390L438 395L435 396L437 399L436 402L433 403L435 406L434 409L431 410L433 411L432 416L429 417L431 418L428 430L425 431L427 432L427 434L424 435L426 436L426 439L424 443L422 442L424 444L424 446L421 447L423 448L420 462L417 463L419 466L416 467L418 470L415 471L417 474L414 475L416 476L415 482L412 483L414 484L414 486L411 487L413 488L411 499L408 500L410 501L410 504L406 509L408 512L405 513L407 514L406 521L403 522L405 523L404 530L401 531L403 532L403 535L400 536L402 537L400 550L397 551L399 552L399 555L396 556L398 557L397 566L394 567L396 568L396 571L393 573L395 574L394 582L391 584L393 586L392 590L390 591L392 592L391 602L388 604L390 605L390 608L387 611L389 612L389 617L386 619L388 620L388 625L385 626L387 627L387 631L384 633L386 635L386 639L383 640L385 642L385 647L382 649L384 651L384 655L381 657L383 658L383 663L380 665L382 667L382 672L379 674L381 675L381 679L378 682L380 688L377 689L379 691L379 695L377 697L384 701L384 704L387 704L389 700L392 703L393 700L396 702L397 699L401 698L404 700L406 697L409 697L410 699L411 696L414 696L415 698L415 696L418 695L419 697L420 694L423 694L424 696L425 693L428 695L430 692L432 692L433 694L434 691L443 688L444 686L441 684L441 682L445 681L445 678L442 675L444 670L445 653L447 652L448 654L446 645L449 645L447 643L447 637L450 637L450 635L447 632L451 629L449 627L450 620L453 619L453 616L455 618L456 615L461 617L462 614L465 616L466 613L474 612L475 614L480 612L482 615L480 617L480 620L483 621L483 636L481 637L481 642L484 643L484 656L482 657L482 665L485 668L485 677L483 678L485 678L489 684L493 684L494 681L499 681L501 683L501 680L507 680L508 682L510 679L514 679L515 681L516 678L528 677L529 679L531 676L535 676L537 678L539 675L546 677L546 674L553 674L553 670L556 669L554 668L554 651L556 650L556 647L553 643L553 628L555 627L553 626L552 609L554 608L554 604L551 600L551 587L553 586L553 581L550 579L550 564L552 562L549 558L549 547L551 545L549 544L548 537L550 528L547 525L547 513L549 510L546 510L546 495L548 494L548 491L546 490L545 473L547 472L547 468L544 467L544 448L546 447L546 443L545 446L543 445L543 425L545 424L545 421L542 421L542 401L544 400L544 397L541 396L541 379L543 378L543 374L541 373L540 367L542 365L540 365ZM481 639L483 638L484 640L482 641ZM483 437L485 440L485 457L486 458L486 469L487 470L486 487L484 488L484 491L487 493L487 535L486 537L483 539L467 541L466 542L460 542L457 538L458 530L459 529L458 525L459 524L462 524L460 523L460 520L461 519L461 515L462 514L464 501L465 500L467 501L467 500L465 499L465 497L468 496L466 495L467 487L468 486L470 475L471 474L473 475L473 474L471 473L471 470L472 469L472 466L473 465L473 462L474 461L474 458L475 457L475 454L476 453L476 450L478 446L479 440L481 437Z" /><path d="M806 355L805 358L801 357L801 359L791 368L789 367L789 371L787 370L788 373L786 377L783 378L785 380L782 381L784 384L781 385L783 386L783 388L780 390L782 393L779 396L779 400L781 401L781 438L778 442L778 452L780 453L780 457L778 458L780 459L779 515L777 516L779 518L777 521L777 531L779 532L779 616L777 617L777 622L780 624L780 629L778 630L781 631L783 640L789 650L788 652L792 656L796 656L796 659L799 658L806 662L817 664L817 667L819 665L828 665L829 667L826 668L829 668L830 666L846 666L847 668L844 669L847 669L848 667L871 667L871 670L868 670L884 670L885 667L890 667L891 669L892 666L896 665L899 667L900 664L905 662L908 663L909 660L911 661L912 658L914 659L913 657L918 653L920 654L919 652L922 652L921 650L927 641L931 639L929 637L932 629L935 628L933 625L936 624L934 623L934 621L937 620L935 617L938 615L936 614L936 610L939 608L937 607L937 602L940 598L938 597L938 590L941 589L941 586L939 585L939 576L942 573L942 569L940 568L941 544L943 543L943 537L941 536L940 507L942 505L939 505L939 496L941 495L938 492L938 485L940 484L937 483L937 475L939 474L936 471L936 466L938 464L935 462L935 457L937 455L934 454L934 450L936 448L933 445L933 442L935 441L932 439L932 434L934 433L931 431L931 426L933 424L930 423L930 420L932 419L929 416L929 413L931 412L928 410L928 406L930 405L928 405L927 402L929 401L926 400L928 398L924 394L925 390L922 388L923 385L922 383L919 383L914 375L915 373L912 373L910 371L911 369L909 370L905 367L905 364L902 365L892 361L892 358L888 361L887 357L885 359L880 359L878 356L876 358L847 357L845 354L844 356L832 356L832 353L824 353L823 355L821 353L817 353L815 356L811 356L810 354L809 357ZM842 419L851 419L854 418L855 419L859 419L860 421L858 422L861 422L862 420L870 421L871 422L870 424L873 423L875 425L878 430L878 433L879 434L879 439L877 440L877 441L878 440L880 441L880 449L878 450L881 452L881 459L879 460L879 465L880 462L882 463L882 475L880 476L880 478L881 477L883 478L883 490L881 491L881 493L882 493L884 496L884 511L882 512L882 530L882 520L884 519L885 520L885 549L884 550L882 549L882 545L882 553L884 554L884 564L882 565L881 562L881 566L883 567L883 578L882 579L881 587L879 590L877 589L878 591L875 595L869 598L860 598L859 597L856 597L855 595L852 595L851 597L844 597L843 594L841 593L839 594L835 590L833 585L833 583L835 582L835 580L834 582L832 581L832 574L834 573L834 560L834 569L832 570L831 569L831 564L830 563L830 555L831 554L831 443L830 442L830 437L832 432L833 432L834 434L834 432L833 432L831 429L833 428L834 426L836 427L835 424Z" /><path d="M759 354L707 355L705 353L703 354L703 357L701 356L700 360L702 361L703 365L702 392L699 392L699 388L699 397L701 398L702 438L700 466L698 465L698 445L698 466L700 467L699 472L695 467L680 427L682 425L679 424L681 422L679 422L676 415L678 414L676 414L674 411L676 409L674 409L668 395L670 393L668 393L665 386L667 385L665 385L662 378L664 377L662 377L660 374L662 372L660 372L658 369L660 367L657 366L659 364L656 363L656 357L654 358L654 355L652 354L651 356L641 356L639 354L636 357L627 357L626 355L621 355L624 356L623 358L613 358L612 356L608 356L606 360L598 359L594 361L590 361L587 358L586 361L583 363L581 362L582 366L581 370L579 371L579 375L581 376L581 389L578 391L580 394L580 404L577 407L577 410L579 411L578 427L576 428L578 430L578 440L575 444L577 447L576 465L574 466L576 468L575 485L573 486L575 488L575 506L572 508L574 511L572 513L574 514L573 535L571 536L573 538L571 540L571 543L573 544L573 562L570 566L570 571L572 572L571 603L569 604L569 607L571 608L570 654L568 655L570 656L570 666L574 674L575 672L584 672L587 674L589 671L597 671L598 673L599 670L606 670L609 672L611 669L618 669L621 671L622 669L629 668L632 664L634 664L632 663L631 623L633 611L635 612L635 616L632 579L634 573L636 574L636 579L636 573L634 572L633 548L635 543L634 528L637 523L640 526L638 528L641 529L639 531L641 531L643 534L650 556L648 559L651 560L682 654L680 656L683 657L681 659L684 660L686 665L687 663L754 663L755 665L755 663L759 660L760 522L762 521L762 501L760 500L762 497L762 471L760 470L762 467L762 455L760 454L762 452L762 438L760 437L760 423L762 422L760 421L760 411L762 410L760 409L760 360L762 359L759 357Z" /></g><g id="yellow-dark" fill="#FFFFFF" fill-rule="evenodd"><path d="M742 796L741 796L739 794L739 795L737 797L738 797L740 795Z" /></g><g id="yellow-soft" fill="#FFFFFF" fill-rule="evenodd"><path d="M597 790L595 791L593 789L592 791L594 792L592 793L593 795L592 796L590 796L595 795L597 793L596 794L594 793ZM592 794L593 793L595 794L594 795Z" /><path d="M560 788L561 789L562 788L563 789L563 791L565 793L564 792L566 791L566 790L562 788L561 789ZM563 791L564 790L565 791L564 792Z" /><path d="M934 789L938 792L939 791L942 791L942 787L939 789L938 787L937 788L935 787ZM934 789L935 788L936 789L935 790Z" /><path d="M744 789L743 787L742 788L740 788L737 786L736 787L738 787L739 788L736 790L735 789L733 790L731 790L732 792L730 794L728 792L728 791L727 791L728 793L727 794L730 795L730 794L732 792L733 792L734 793L733 795L735 796L734 797L723 797L736 797L739 793L741 795L744 795L741 795L740 794L742 792L741 789L742 788ZM739 793L740 792L741 793L740 794ZM735 792L736 791L737 792L736 793ZM731 791L732 790L733 791L732 792ZM733 790L734 789L735 790L734 791Z" /><path d="M588 786L587 787L585 786L583 787L584 788L585 787L586 789L584 790L581 793L581 794L582 794L584 792L585 794L586 794L586 790L588 789L586 788Z" /><path d="M507 793L505 792L506 791L504 791L502 788L502 786L501 786L500 788L500 790L499 791L495 791L494 792L494 793L501 793L500 793L499 791L500 790L501 791L503 790L504 791L503 793ZM495 792L496 791L498 792L497 793Z" /><path d="M826 785L825 785L822 788L821 788L821 790L822 791L823 789L825 790L824 791L826 791L826 787L825 786Z" /><path d="M801 782L803 783L802 784L799 784L800 785L801 784L802 785L802 787L804 787L805 788L803 789L803 790L800 792L798 791L799 793L801 794L805 794L806 793L807 794L809 793L807 792L808 791L806 791L805 790L808 787L810 787L812 785L814 786L813 787L814 786L813 784L814 782ZM800 792L801 791L803 792L802 793ZM803 790L804 789L806 791L804 792ZM804 787L806 786L807 788L806 789ZM802 786L803 785L804 786L803 787ZM803 784L804 782L807 783L804 785Z" /><path d="M937 774L940 774L947 781L949 782L951 782L952 783L952 786L951 787L952 788L952 790L953 790L955 792L954 793L952 793L954 794L957 794L956 792L957 790L959 791L960 793L961 792L963 794L962 795L957 796L966 794L968 792L969 792L974 787L971 790L970 788L969 788L967 790L963 788L963 790L961 791L960 790L961 789L960 788L961 787L956 783L957 782L950 782L949 781L947 781L942 775L940 774ZM965 792L966 791L968 792L967 793ZM961 792L963 791L966 793L963 794ZM968 791L969 790L970 791L969 792ZM964 791L965 790L966 791L965 792ZM969 790L970 789L971 790L970 791ZM954 790L955 789L956 790L955 791ZM952 789L953 788L954 789L953 790ZM952 787L953 786L954 787L953 788ZM954 784L955 783L956 784L955 785Z" /><path d="M965 773L966 774L965 775L965 777L964 779L965 778L966 779L966 777L967 776L970 781L969 780L970 778L972 780L972 784L975 781L976 783L977 781L977 778L977 780L975 781L974 780L975 779L974 780L973 779L974 777L974 775L971 775L970 773L967 773L966 774ZM972 782L973 781L974 782L973 783ZM968 778L969 777L970 778L969 779ZM970 776L973 775L974 777L971 778ZM967 775L969 774L970 776L969 777Z" /><path d="M795 772L793 773L791 771L790 771L788 773L789 775L791 776L789 777L791 778L789 780L786 778L787 775L787 776L785 777L785 779L787 780L786 782L785 781L786 782L785 783L786 782L787 783L786 782L788 781L789 782L789 784L790 783L789 782L790 780L791 781L794 778L795 780L796 779L795 778L796 777L796 773ZM791 778L792 777L793 779L792 780ZM791 776L792 775L793 776L792 777ZM793 773L794 772L795 773L794 774ZM789 774L792 772L794 775L793 776Z" /><path d="M857 767L857 775L858 775L859 773L859 771L858 770L858 767Z" /><path d="M559 766L559 772L558 773L558 777L560 778L559 777L560 775L560 773L559 772L560 771Z" /><path d="M950 762L959 767L960 766L960 764L957 766Z" /><path d="M820 760L820 761L818 763L801 763L799 764L798 766L797 765L793 765L793 766L794 766L796 768L795 766L796 765L798 766L798 779L798 767L801 763L818 763L820 761Z" /><path d="M571 759L571 763L570 764L568 760L568 762L565 765L564 764L564 766L565 767L564 769L565 769L567 771L569 775L570 775L569 774L570 772L572 774L572 776L572 773L571 772L572 770L571 769Z" /><path d="M732 758L732 765L734 767L736 767L737 766L738 767L740 767L742 768L744 770L744 769L746 767L747 767L748 769L748 768L745 766L745 764L743 763L744 761L742 763L741 762L741 760L744 757L746 757L744 757L743 758L741 757L742 759L740 761L739 760L738 762L737 761L738 762L737 764L734 762L735 761L734 761L734 765L733 766L732 765Z" /><path d="M755 756L756 758L756 772L754 773L753 771L753 772L751 773L750 775L752 778L751 780L748 782L747 780L745 782L746 784L745 785L751 782L752 783L754 781L755 783L754 784L754 786L753 788L748 793L753 788L754 786L754 784L755 783L755 776L756 775L756 758ZM751 782L752 781L753 782L752 783ZM749 782L750 781L751 782L750 783ZM745 782L746 781L748 782L747 783ZM753 780L754 779L755 780L754 781ZM754 774L755 773L756 774L755 775Z" /><path d="M882 755L881 756L879 755L875 755L872 759L870 759L869 760L868 759L869 761L870 760L872 761L874 761L872 760L873 759L875 759L876 760L876 757L878 755L879 756L879 759L881 758L882 759L881 758ZM874 756L875 755L876 756L875 757Z" /><path d="M805 754L802 755L802 756L803 757Z" /><path d="M792 760L793 761L801 761L802 760L804 761L805 759L803 760L801 759L799 757L800 755L799 755L798 757L797 756L797 754L795 756L794 755L795 757L796 755L797 756L797 758L795 760L793 759ZM796 759L798 757L799 758L798 760Z" /><path d="M500 755L502 759L504 761L504 762L506 763L505 764L502 764L508 764L512 766L516 770L516 777L516 775L518 773L519 775L520 775L521 773L523 772L521 773L519 771L517 773L516 772L516 770L512 766L508 764L510 763L509 762L513 759L509 761L507 761L506 760L509 758L508 757L509 754L507 755L506 754L503 754L502 755ZM507 763L508 762L509 763L508 764ZM503 757L504 756L508 758L505 761ZM507 755L508 754L509 755L508 756Z" /><path d="M817 751L812 751L812 752L815 754L813 756L813 757L815 756L815 755L817 753Z" /><path d="M787 751L787 753L788 754L787 756L784 758L784 760L783 761L784 762L783 764L783 767L785 770L785 769L787 767L785 763L786 762L788 763L789 765L788 763L790 760L789 758L791 756L791 755L790 757L789 756L789 754L787 752ZM787 757L788 756L789 758L788 759Z" /><path d="M635 746L637 751L636 752L634 751L635 754L634 759L635 760L633 762L632 761L632 750L632 794L634 796L645 796L647 794L647 782L647 789L646 790L645 789L645 777L647 771L651 768L654 770L666 795L668 796L665 793L663 787L664 786L665 787L665 784L667 783L666 782L667 781L671 781L674 779L682 793L681 796L679 796L681 796L682 793L668 766L676 759L679 752L678 756L675 760L668 766L670 770L669 772L668 771L666 773L666 775L668 776L663 777L661 775L663 778L660 781L654 770L657 769L656 768L657 767L659 768L659 767L656 766L659 764L662 765L660 764L655 765L650 759L649 761L651 764L650 768L647 771L646 769L645 770L643 769L644 770L641 773L639 772L635 774L634 773L633 778L632 777L632 763L637 760L640 761L638 758L641 756L645 757L645 746L644 745L645 746L642 747L644 749L643 750L639 748L637 749L636 746ZM642 790L643 789L644 790L643 791ZM632 790L637 788L638 789L637 792L639 791L640 792L639 793L641 791L642 793L643 792L645 793L646 791L647 794L645 796L634 796L632 794ZM640 788L641 787L642 788L641 789ZM634 788L635 787L636 788L635 789ZM637 787L638 786L639 787L638 788ZM662 786L663 785L664 786L663 787ZM642 786L643 785L644 786L643 787ZM661 784L662 783L663 784L662 785ZM640 783L641 782L642 784L641 785ZM642 782L643 781L644 782L643 783ZM663 778L664 777L665 778L664 779ZM671 776L672 775L673 776L672 777ZM640 776L641 775L642 776L641 777ZM637 774L638 773L639 774L638 775ZM653 769L654 767L656 768L654 770ZM652 764L653 763L654 764L653 765ZM651 762L652 761L653 762L652 763ZM638 760L639 759L640 760L639 761ZM634 758L635 757L636 758L635 759ZM637 757L638 756L639 757L638 758ZM638 756L639 755L640 756L639 757ZM639 754L641 753L642 755L640 756ZM638 749L639 748L640 749L639 750Z" /><path d="M900 743L900 746L899 747L900 748L899 749L900 751L901 749L901 746L902 745Z" /><path d="M796 743L795 746L793 747L793 749L796 747Z" /><path d="M568 739L568 746L569 747L569 739Z" /><path d="M517 738L515 740L515 744L514 745L515 745L515 740L516 739L517 740L517 746L516 747L520 745L521 747L519 748L519 749L520 749L522 751L522 752L524 753L524 754L521 757L521 758L525 761L526 761L529 765L529 766L527 767L528 768L526 770L526 772L529 775L528 776L529 778L528 776L529 775L529 772L530 771L531 772L531 775L531 769L530 768L530 766L528 764L528 763L521 757L526 752L526 751L528 749L528 746L529 745L529 738L529 743L528 744L527 742L524 740L521 743L519 743L517 741L519 740ZM529 770L530 769L531 770L530 771ZM528 768L529 767L530 769L529 770ZM520 748L521 747L522 748L521 749ZM517 745L518 744L519 745L518 746Z" /><path d="M855 736L855 792L856 794L859 792L861 793L860 792L860 790L862 789L863 791L865 787L867 790L867 792L866 793L868 793L869 794L868 795L859 795L868 795L870 793L870 771L870 782L869 783L867 781L868 779L867 777L866 777L864 779L863 779L864 780L862 782L863 785L862 786L859 785L860 786L860 788L859 789L858 787L857 787L857 788L858 788L859 790L856 792L855 791ZM868 791L869 790L870 792L869 793ZM867 790L868 789L869 790L868 791ZM868 787L869 786L870 788L869 789ZM864 781L865 779L867 780L865 782Z" /><path d="M892 735L891 735L891 746L892 745L894 745L893 744L894 743L894 741L893 740L894 738Z" /><path d="M558 735L559 737L558 738L558 751L560 754L559 753L559 750L560 749L559 747L560 746L560 744L563 741L564 741L564 740L561 741L559 738L560 736Z" /><path d="M677 733L677 740L676 742L674 743L674 744L677 743L678 744L677 745L678 745L678 736L677 735Z" /><path d="M722 737L722 738L722 737L726 733L728 732L730 732L731 731L733 731L734 732L736 732L741 737L742 739L740 735L743 732L743 731L742 732L740 732L738 731L740 732L739 734L736 732L734 732L733 731L730 731L726 733ZM739 734L740 733L741 734L740 735Z" /><path d="M880 730L873 730L870 734L870 744L869 745L868 744L868 738L865 740L862 737L859 736L859 731L858 730L857 732L857 751L858 752L857 753L860 751L863 752L860 756L859 755L857 756L859 755L860 756L859 757L861 759L860 758L862 757L866 763L867 763L865 762L866 760L863 758L865 757L863 754L866 750L868 753L868 756L870 757L868 754L868 746L869 745L870 749L870 734L873 730ZM861 756L862 755L864 756L863 757ZM862 751L863 750L864 751L863 752ZM864 749L865 748L866 749L865 750ZM861 748L862 747L863 748L862 749ZM858 748L860 747L861 749L859 750ZM863 746L864 745L865 746L864 747ZM860 746L861 745L862 746L861 747ZM861 743L862 742L863 743L862 744ZM861 740L862 739L863 740L862 741Z" /><path d="M789 729L789 731L790 730L791 731L791 734L792 733L791 732L791 729Z" /><path d="M710 729L706 741L706 767L706 742L707 741L709 742L711 740L716 741L717 742L715 743L717 744L719 748L717 750L719 752L718 753L720 751L721 752L721 768L720 769L717 767L716 770L714 768L716 765L714 764L715 763L713 764L711 762L711 759L708 757L708 771L712 773L713 776L718 777L718 779L715 782L713 782L711 785L710 783L711 785L710 788L711 789L712 788L715 791L715 788L713 785L716 783L718 779L720 781L719 778L721 777L724 781L721 776L721 740L720 741L719 738L716 737L717 733L715 731L716 732L715 734L713 733L711 734L709 732L710 730L711 731ZM713 788L714 787L715 788L714 789ZM712 784L713 783L714 784L713 785ZM715 776L716 775L717 776L716 777ZM713 773L714 772L715 773L714 774ZM713 770L714 769L715 770L714 771ZM712 769L713 770L712 773L711 772ZM718 750L719 749L720 750L719 751ZM716 743L717 742L718 743L717 744ZM717 740L721 742L721 744L719 747L718 746L718 743L716 741ZM715 738L716 737L717 738L716 739ZM710 737L711 736L712 737L711 738ZM708 737L709 736L710 738L709 739ZM715 735L716 734L717 735L716 736Z" /><path d="M606 729L606 770L605 771L604 769L601 771L603 773L600 776L600 777L602 779L602 781L604 782L604 784L603 786L605 782L605 778L606 777ZM603 780L604 779L605 780L604 781ZM600 776L601 775L602 776L601 777ZM605 771L606 772L606 777L605 778L604 777L604 772ZM602 772L603 771L604 772L603 773Z" /><path d="M558 728L559 729L558 731L558 733L559 733L560 732L560 729Z" /><path d="M941 729L939 731L943 733L944 735L947 731L949 732L946 736L946 741L951 746L945 751L942 749L946 752L945 754L941 752L937 754L933 750L933 749L942 758L944 758L948 761L944 758L945 757L949 758L951 756L952 757L955 755L956 756L958 755L955 752L956 751L955 750L957 749L968 755L974 761L973 763L970 761L975 769L974 770L975 772L976 767L977 771L975 762L968 755L952 747L946 741L947 734L952 731L949 732L948 730L950 729L948 727L946 727L944 731ZM974 765L975 764L976 766L975 767ZM973 763L974 762L975 764L974 765ZM942 757L943 756L944 757L943 758ZM946 756L947 755L948 757L947 758ZM951 755L952 754L953 755L952 756ZM952 754L955 752L956 753L955 755ZM950 753L951 752L952 753L951 754ZM946 751L947 750L948 752L947 753ZM950 749L951 750L950 753L951 754L948 756L946 754L948 753ZM953 749L954 748L956 749L955 750ZM952 748L953 747L954 748L953 749ZM944 732L945 730L947 731L945 733ZM946 729L947 728L948 729L947 730Z" /><path d="M483 726L483 782L482 783L482 790L483 780L484 779L485 783L487 782L485 780L486 779L485 778L487 776L491 778L490 779L491 778L494 779L496 775L497 776L497 781L499 783L507 783L508 784L504 787L505 789L508 790L507 788L508 787L511 789L513 787L515 787L516 788L514 789L516 791L515 792L516 791L520 793L518 794L523 792L530 785L532 777L531 782L526 789L525 787L520 788L519 787L520 782L516 783L515 782L516 781L513 781L510 783L500 783L497 781L497 766L500 765L498 765L496 768L495 765L493 766L489 762L490 760L488 758L489 757L493 758L494 755L499 752L497 750L497 736L500 734L508 734L514 738L508 734L500 734L497 736L497 746L496 747L494 742L492 745L486 739L485 734L485 745L487 745L491 749L489 750L490 752L489 753L492 754L488 757L485 755L485 778L484 779L483 778ZM520 792L521 791L522 792L521 793ZM524 789L525 788L526 789L525 790ZM515 790L517 788L518 789L517 791ZM511 787L512 786L513 787L512 788ZM517 786L518 785L520 786L519 787ZM514 786L515 785L516 786L515 787ZM487 775L488 774L490 776L488 777ZM495 773L496 772L497 774L496 775ZM490 766L491 765L492 766L491 767ZM486 761L487 759L490 760L487 762ZM494 753L495 754L493 757L492 754ZM491 752L492 751L493 752L492 753ZM491 748L492 747L494 748L493 749ZM491 746L492 745L493 746L492 747ZM489 745L490 744L491 745L490 746ZM487 744L488 743L490 744L489 745Z" /><path d="M747 725L747 727L750 731L750 734L751 735L751 733L753 731L754 732L754 736L751 739L747 739L751 739L754 736L754 732L752 728L751 729Z" /><path d="M520 724L522 726L521 727L517 727L516 730L517 728L519 728L523 731L523 733L522 735L523 734L525 735L526 734L525 733L526 731L528 733L528 735L528 733L526 729L525 729L524 727ZM524 731L525 730L526 731L525 732ZM521 727L522 726L523 727L522 728Z" /><path d="M497 724L501 728L500 729L501 731L505 731L506 732L506 728L504 729L502 728L502 725L503 724L504 726L503 724L501 725L499 725Z" /><path d="M943 722L942 722L941 724L939 724L938 725L939 725L940 727L941 726L941 724L943 723Z" /><path d="M797 721L799 722L801 720L799 720L798 721L797 720Z" /><path d="M650 732L657 732L658 733L661 733L662 735L665 738L665 740L666 741L666 746L663 750L663 751L660 753L662 752L665 748L666 750L668 751L670 750L670 749L666 746L666 740L664 736L668 733L667 732L667 730L668 729L669 731L670 731L673 728L674 730L675 730L675 728L676 727L680 735L680 750L680 735L679 734L679 732L677 728L673 724L673 723L669 721L664 720L669 721L671 723L670 724L668 723L666 723L669 726L669 727L666 730L664 730L663 729L661 733L659 733L658 732ZM665 748L666 747L667 748L666 749ZM674 727L675 726L676 727L675 728ZM673 726L674 725L675 726L674 727ZM672 725L673 724L674 725L673 726Z" /><path d="M595 720L592 723L592 764L592 758L593 757L594 762L595 761L597 765L599 764L602 767L604 767L604 744L600 749L601 748L602 749L601 751L602 752L600 753L600 755L599 756L598 755L599 756L597 757L595 755L596 753L594 757L592 756L592 730L593 729L594 730L594 733L595 732L597 733L598 732L600 733L603 732L603 730L600 732L598 729L599 728L601 729L600 727L601 726L603 727L604 722L605 721L606 724L606 721L605 720ZM600 764L601 763L602 764L601 765ZM597 763L598 762L599 763L598 764ZM598 762L599 761L600 762L599 763ZM602 761L603 760L604 762L603 763ZM595 760L596 759L597 761L596 762ZM594 730L595 729L596 730L595 731ZM602 725L603 724L604 725L603 726ZM600 721L601 720L604 720L605 721L604 722L601 722ZM596 721L597 720L600 721L599 722ZM595 720L596 721L595 724L597 723L598 725L593 727L592 726L592 723Z" /><path d="M961 723L961 725L962 725L964 723L966 724L967 723L970 725L967 722L969 721L974 726L975 729L974 726L969 721L965 719L968 721L967 722L964 722L963 723Z" /><path d="M881 717L890 718L896 721L899 725L898 726L894 723L896 726L893 728L897 728L899 730L898 732L901 733L902 731L904 734L904 747L900 756L892 762L889 760L888 761L884 760L887 762L888 768L890 769L893 768L895 770L899 780L898 781L895 778L896 781L894 782L891 778L891 780L894 782L892 784L890 783L891 785L888 789L882 778L884 775L883 773L884 772L881 770L880 773L876 767L882 777L888 791L891 794L894 793L893 792L894 791L896 792L898 791L899 788L902 789L900 787L901 783L905 790L893 766L891 765L891 763L893 761L895 761L903 751L904 734L901 726L896 721L888 717ZM890 793L891 792L892 793L891 794ZM895 789L896 788L897 790L896 791ZM889 788L891 791L890 793L888 791ZM896 788L897 787L898 788L897 789ZM897 787L898 786L899 787L898 788ZM895 786L896 788L893 791L892 788ZM889 787L890 786L892 788L890 789ZM895 786L896 785L898 786L897 787ZM890 786L891 785L892 786L891 787ZM893 785L894 784L895 785L894 786ZM894 783L895 782L896 783L895 784ZM881 775L882 774L883 776L882 777ZM880 773L881 772L882 774L881 775ZM891 768L892 767L893 768L892 769ZM890 766L891 765L892 766L891 767ZM890 762L891 763L890 766L889 765ZM890 762L891 761L892 762L891 763ZM901 728L902 729L901 732L900 731ZM899 727L900 726L901 727L900 728ZM898 726L899 725L900 726L899 727Z" /><path d="M783 719L783 721L783 720L785 718L787 718L788 717L789 718L790 717L825 717L826 718L825 720L824 719L823 720L821 720L823 721L823 722L825 724L825 726L825 724L826 723L825 722L825 720L826 719L828 721L828 726L828 721L825 717L788 717L787 718L785 718Z" /></g><g id="yellow" fill="#FFFFFF" fill-rule="evenodd"><path d="M870 792L870 793L870 792L869 791L867 791L866 789L866 791L865 792L862 791L862 793L858 795L869 795L867 794L867 792L868 791Z" /><path d="M634 791L634 795L635 796L646 796L647 795L647 793L646 795L642 793L639 793L638 792L638 790L636 789L636 790Z" /><path d="M675 781L672 783L668 783L666 788L664 787L667 794L670 797L682 796L682 794Z" /><path d="M520 725L512 723L511 724L488 724L485 726L485 785L484 786L484 792L486 795L513 796L520 794L517 793L518 790L516 789L516 787L515 789L513 788L514 789L513 791L510 789L508 791L506 791L505 788L508 785L500 785L497 782L497 774L497 778L495 780L492 780L489 776L487 779L485 778L485 756L486 755L489 757L492 755L494 756L494 758L490 759L488 762L490 761L492 764L492 767L496 765L497 768L499 765L506 764L502 760L501 756L504 754L507 754L510 758L509 759L505 758L506 761L512 760L513 762L509 764L513 766L518 771L518 773L521 772L523 774L521 777L519 775L516 781L517 783L519 782L522 783L521 786L519 787L521 788L526 787L527 788L526 790L531 783L532 779L531 771L528 764L521 759L524 754L519 750L520 748L522 749L521 747L517 745L518 742L522 743L524 741L527 741L529 744L528 734L526 732L527 736L525 737L523 735L523 732L517 729L518 727L523 728ZM494 793L496 792L497 794L495 795ZM504 792L506 791L507 794L505 795ZM498 792L500 791L501 794L499 795ZM514 790L516 789L517 791L515 792ZM502 786L504 787L505 790L503 793L500 791L500 789ZM495 784L497 783L498 785L496 786ZM485 782L487 781L488 784L486 785ZM528 769L531 771L531 775L530 776L526 773L526 771ZM517 740L519 739L520 741L518 742ZM521 739L523 738L524 740L522 741ZM516 739L517 741L517 746L516 748L512 752L508 754L494 755L493 753L493 754L491 755L489 751L491 750L488 747L485 746L485 736L486 735L488 736L488 740L493 744L492 746L489 745L492 746L493 749L494 749L493 748L493 744L494 743L497 745L497 747L497 737L501 734L509 734L513 736ZM490 729L492 728L493 731L491 732ZM499 726L500 725L503 725L504 726L504 729L506 728L508 729L508 732L507 733L502 733L501 732L501 729Z" /><path d="M560 723L558 725L558 781L563 791L564 789L567 790L568 792L567 793L565 792L567 794L578 798L590 797L599 793L604 785L604 783L602 782L601 779L602 775L604 773L606 774L606 778L606 730L607 729L606 723L605 722L596 722L594 724L594 727L598 726L598 725L597 726L595 725L597 722L605 722L606 723L606 725L604 726L605 728L604 729L602 728L600 730L601 732L600 734L595 734L594 731L593 777L585 785L580 785L574 781L571 774L569 776L565 770L564 766L569 761L571 762L571 764L572 759L572 750L571 749L572 726L570 723L566 722ZM589 794L591 793L592 795L590 796ZM593 791L595 790L597 793L595 794ZM581 794L585 790L588 791L588 795L586 796L585 794L582 796ZM584 787L586 786L587 788L585 789ZM563 774L565 773L567 776L565 777ZM559 773L562 774L562 776L560 779L558 778L558 774ZM602 771L605 770L606 772L603 773ZM559 770L561 769L562 772L560 773ZM604 745L606 746L606 761L604 762L604 763L606 764L606 768L605 769L602 768L602 765L598 767L596 765L597 761L596 763L594 762L594 758L596 756L599 757L600 754L602 753L602 748ZM569 739L571 740L571 747L570 748L568 747L568 740ZM560 738L562 741L564 740L566 741L566 742L562 745L561 748L562 750L560 753L558 752L558 739ZM558 736L560 735L561 737L559 738ZM602 732L604 731L605 733L603 734ZM561 729L562 730L562 733L559 735L558 732L559 730Z" /><path d="M634 723L634 778L635 774L638 773L639 775L640 773L642 773L645 770L648 771L650 769L651 765L649 762L652 760L654 765L658 764L660 765L655 770L661 781L662 779L665 779L666 777L668 777L666 776L666 774L668 772L670 772L669 766L675 761L680 752L680 736L679 733L674 726L677 729L677 731L675 732L674 730L670 733L668 730L669 727L667 724L668 723L671 724L664 721L648 721L647 722L642 722L641 721ZM646 747L647 748L647 757L646 758L643 758L642 755L641 755L639 758L640 761L635 764L634 762L636 759L634 758L635 755L634 752L635 751L637 752L638 749L640 750L641 749L644 750L643 748ZM635 747L637 746L638 749L636 750ZM679 736L680 737L680 744L675 746L674 744L676 743L677 741L677 737ZM668 730L669 731L669 735L666 737L668 741L668 747L669 747L672 751L669 753L666 751L667 749L663 754L659 756L655 756L654 757L649 756L647 753L647 736L648 734L651 732L659 732L662 733L663 730ZM651 727L653 726L654 728L652 729ZM644 723L647 722L648 724L645 725Z" /><path d="M951 719L944 721L937 726L933 733L932 743L935 751L938 754L941 752L948 755L948 758L946 759L958 766L959 765L962 766L961 769L964 773L964 778L958 784L962 787L963 793L961 794L958 792L959 795L955 796L954 794L956 791L955 792L952 791L952 789L954 788L952 787L952 784L948 783L941 776L937 776L934 778L931 783L934 789L936 790L937 788L940 789L943 788L944 792L940 793L944 795L960 796L968 793L963 792L964 788L967 790L971 788L972 790L970 792L975 787L978 778L977 769L975 770L971 765L971 763L973 762L976 767L974 762L969 757L954 749L957 751L957 753L955 755L953 755L951 753L951 751L950 753L947 751L951 747L947 744L946 737L951 731L958 731L967 739L971 739L976 735L976 731L974 727L966 721L963 721L959 719ZM971 779L974 778L976 782L973 783ZM971 773L972 775L969 776L968 779L966 780L965 779L965 776L968 773ZM967 759L969 758L970 760L968 761ZM953 756L955 755L956 757L954 758ZM952 755L953 757L949 760L948 757ZM956 755L959 754L960 756L957 757ZM933 743L935 742L936 745L934 746ZM940 731L943 729L944 731L946 732L946 734L943 735L940 733ZM947 727L950 728L950 729L948 730L950 731L949 733L945 731ZM939 725L942 724L943 727L941 728ZM961 726L962 723L965 722L968 722L969 723L968 725L965 725L963 727ZM942 723L944 722L945 724L943 725Z" /><path d="M786 720L784 723L784 764L784 759L789 754L791 755L791 757L789 758L791 760L791 763L789 765L787 764L789 768L786 771L784 769L784 794L786 796L826 796L828 794L828 785L825 783L816 783L815 786L811 789L807 788L803 789L802 788L803 784L805 785L807 784L802 784L798 780L798 767L799 765L802 763L819 763L821 760L821 755L819 751L801 751L798 747L798 743L799 742L799 734L802 731L826 731L828 728L828 722L826 719L789 719ZM809 792L809 794L806 796L802 796L799 794L800 792L802 793L807 791ZM816 789L818 788L819 790L817 791ZM825 786L828 788L828 792L826 793L825 791L823 792L821 791L821 789ZM785 778L787 777L788 779L790 780L792 779L793 781L790 783L788 783L787 781L785 780ZM797 773L798 774L798 778L796 780L794 780L793 777L794 775ZM789 773L791 771L793 772L792 775L790 775ZM793 766L796 765L797 767L794 768ZM793 761L794 760L799 760L799 759L801 758L805 760L806 762L805 763L803 762L802 763L794 763ZM802 756L805 755L806 757L803 758ZM799 756L801 755L802 757L800 758ZM818 751L819 754L817 757L814 759L813 757L815 755L814 755L812 752L813 751ZM797 745L798 748L796 750L794 750L793 748ZM789 730L792 729L793 731L790 732ZM803 729L805 728L806 730L804 731ZM792 727L794 726L795 728L793 729ZM823 721L826 720L827 721L827 724L825 725L823 723ZM798 723L800 720L802 721L800 724Z" /><path d="M728 719L722 721L714 726L711 732L712 734L713 733L715 734L718 733L719 735L717 736L718 737L717 739L720 738L721 741L717 743L713 742L708 743L708 781L711 788L712 785L715 786L715 789L713 791L718 795L723 797L735 797L734 794L731 792L732 790L735 791L742 788L744 793L741 794L746 795L753 789L755 781L754 783L751 782L752 779L751 774L755 773L756 775L756 759L753 756L748 757L736 756L734 757L734 766L735 763L738 764L740 761L742 761L743 763L747 765L747 769L745 771L743 770L742 779L738 783L732 785L725 783L722 779L721 779L722 782L720 783L717 777L716 778L713 777L713 775L715 774L713 772L717 770L718 767L721 769L721 753L719 750L721 745L722 738L727 733L731 731L739 733L744 740L752 739L754 737L754 733L752 736L750 735L750 732L747 727L749 726L752 729L752 728L746 722L740 719L733 719L732 720ZM727 792L729 791L732 796L730 797L728 795ZM714 790L716 789L717 791L715 792ZM747 787L749 786L750 789L748 790ZM746 785L746 784L749 782L751 783L751 784L748 786ZM713 783L714 782L717 782L718 784L717 785L714 785ZM709 776L711 775L712 777L710 778ZM750 760L752 759L753 761L751 762ZM709 758L713 760L713 763L717 766L716 770L713 771L712 774L708 772L708 759ZM741 758L743 757L744 759L742 760ZM735 758L737 757L738 759L736 760ZM717 745L719 744L720 746L718 747ZM740 733L743 732L744 734L741 735ZM720 729L722 728L723 730L721 731ZM729 728L731 727L732 729L730 730Z" /><path d="M858 720L857 721L857 792L859 791L860 787L863 786L862 783L864 781L866 782L867 781L865 780L867 777L869 778L870 783L870 772L873 767L877 767L881 772L887 786L890 790L890 792L893 795L905 795L906 792L902 785L903 789L902 791L898 787L895 786L896 787L895 789L892 788L891 785L894 783L896 784L895 779L897 778L899 781L899 779L893 769L892 771L888 769L888 765L885 762L886 760L891 761L892 762L891 764L892 767L891 764L900 757L904 748L904 735L902 730L902 733L900 734L899 731L895 729L896 727L895 725L897 724L901 728L894 721L887 719L865 718ZM897 790L899 789L900 792L898 793ZM890 790L893 789L894 791L896 790L897 792L893 795L891 793ZM857 788L859 787L860 789L858 790ZM891 779L893 778L894 781L892 782ZM882 770L884 771L886 775L885 777L884 777L881 773ZM858 767L860 768L860 771L861 772L861 774L859 777L857 776L857 768ZM864 760L866 759L868 762L865 763ZM879 757L882 756L883 759L880 761L879 760ZM864 757L866 756L867 758L865 759ZM860 757L862 756L863 758L861 759ZM879 756L877 761L874 761L873 762L870 761L871 759L873 759L873 758L876 757L877 755ZM868 756L870 755L871 757L869 758ZM902 744L903 745L903 750L900 752L899 751L900 749L900 745ZM893 735L896 739L895 741L896 744L894 747L891 746L891 736ZM859 731L861 732L861 737L863 737L866 740L868 739L870 740L870 753L868 754L867 752L864 757L862 756L862 754L864 752L860 754L857 752L857 733ZM874 730L881 730L886 732L891 738L891 745L889 749L883 754L874 755L871 753L870 750L870 735Z" /></g><g id="red" fill="#FFFFFF" fill-rule="evenodd"><path d="M447 760L443 754L438 752L435 753L404 753L403 754L369 754L363 756L360 759L359 767L364 772L437 772L444 769L446 766Z" /><path d="M1010 761L1011 765L1017 770L1068 770L1069 769L1081 769L1083 770L1084 769L1094 769L1098 767L1101 762L1100 757L1098 754L1094 752L1083 752L1082 751L1017 751L1012 755Z" /></g></g></svg>
