<svg xmlns="http://www.w3.org/2000/svg" viewBox="0 0 300 520" role="img" aria-labelledby="title desc"><title id="title">Vaso Canova</title><desc id="desc">Vaso negro para bebida con identidad Canova sobre fondo transparente.</desc><defs><filter id="grain" x="-4%" y="-4%" width="108%" height="108%" color-interpolation-filters="sRGB">
      <feTurbulence type="fractalNoise" baseFrequency=".65" numOctaves="3" seed="12" result="noise" />
      <feColorMatrix in="noise" type="matrix" values="0 0 0 0 .25 0 0 0 0 .18 0 0 0 0 .08 0 0 0 .18 0" result="coloredGrain" />
      <feComposite in="coloredGrain" in2="SourceAlpha" operator="in" result="clippedGrain" />
      <feBlend in="SourceGraphic" in2="clippedGrain" mode="multiply" />
    </filter>
    <mask id="topBunMask" maskUnits="userSpaceOnUse" x="0" y="0" width="1200" height="1200">
      <path fill="#FFFFFF" d="M202 499C195 330 278 194 420 128C532 76 666 72 786 112C940 163 1036 298 1074 435C1083 467 1064 496 1033 496H854C824 496 805 478 786 448C746 385 664 365 598 385C542 402 503 435 477 485C464 511 445 529 414 529H228C212 529 202 518 202 499Z" />
      <g fill="#000000">
        <ellipse cx="375" cy="278" rx="23" ry="10" transform="rotate(-41 375 278)" />
        <ellipse cx="485" cy="229" rx="23" ry="10" transform="rotate(-25 485 229)" />
        <ellipse cx="580" cy="169" rx="23" ry="10" transform="rotate(-12 580 169)" />
        <ellipse cx="763" cy="185" rx="23" ry="10" transform="rotate(12 763 185)" />
        <ellipse cx="879" cy="252" rx="23" ry="10" transform="rotate(27 879 252)" />
        <ellipse cx="651" cy="253" rx="23" ry="10" transform="rotate(17 651 253)" />
      </g>
    </mask>
  <g id="canova-mark"><g transform="translate(0 35)">
    <path fill="#FFC72C" filter="url(#grain)" mask="url(#topBunMask)" d="M202 499C195 330 278 194 420 128C532 76 666 72 786 112C940 163 1036 298 1074 435C1083 467 1064 496 1033 496H854C824 496 805 478 786 448C746 385 664 365 598 385C542 402 503 435 477 485C464 511 445 529 414 529H228C212 529 202 518 202 499Z" />
  </g>
  <path fill="#FFC72C" filter="url(#grain)" d="M228 618C286 585 342 608 401 620C462 632 504 606 560 603C631 597 674 619 734 608C801 596 859 571 923 578C975 583 1024 600 1046 622C1060 637 1054 660 1032 669C969 693 904 673 842 673C775 674 724 690 663 682C597 674 555 652 493 661C426 671 377 690 317 679C268 671 229 654 214 641C206 633 213 624 228 618Z" />
  <path fill="#FFC72C" filter="url(#grain)" d="M226 720C365 717 503 722 641 716C777 710 902 713 1032 719C1052 720 1064 730 1064 746C1064 763 1050 775 1029 776C895 780 772 777 638 780C499 783 366 779 228 781C209 781 197 770 197 753C197 735 208 722 226 720Z" />
  <path fill="#FFC72C" filter="url(#grain)" d="M230 807H412C448 807 469 825 487 852C520 900 566 928 624 931C695 935 756 902 789 847C808 817 830 806 862 806H1019C1059 806 1080 842 1066 875C1014 1000 916 1091 779 1128C657 1162 531 1154 420 1114C317 1077 245 999 215 892C202 846 208 807 230 807Z" />
</g><filter id="pack-grain" x="-5%" y="-5%" width="110%" height="110%"><feTurbulence type="fractalNoise" baseFrequency=".32" numOctaves="2" seed="23" result="noise" /><feColorMatrix in="noise" type="matrix" values="0 0 0 0 .12 0 0 0 0 .08 0 0 0 0 .03 0 0 0 .14 0" result="grain" /><feComposite in="grain" in2="SourceAlpha" operator="in" result="clipped" /><feBlend in="SourceGraphic" in2="clipped" mode="multiply" /></filter></defs><path d="M178 70L217 10" fill="none" stroke="#E6392E" stroke-width="17" stroke-linecap="round" /><path d="M48 91H252L229 487Q228 507 207 507H93Q72 507 71 487Z" fill="#111111" stroke="#F2E9D8" stroke-width="8" stroke-linejoin="round" filter="url(#pack-grain)" /><rect x="31" y="67" width="238" height="48" rx="22" fill="#252525" stroke="#F2E9D8" stroke-width="8" /><circle cx="150" cy="275" r="94" fill="none" stroke="#FFC72C" stroke-width="7" /><use href="#canova-mark" transform="translate(82 207) rotate(0 68 68) scale(0.113333)" /><path d="M80 413H220" fill="none" stroke="#E6392E" stroke-width="15" stroke-linecap="round" /><g fill="#F2E9D8" aria-label="ICE COLD" transform="translate(84.966 459) scale(1.000000 1)"><path d="M140 0V1466H436V0Z" transform="translate(0.000 0) scale(0.011719 -0.011719)" /><path d="M1087 539 1374 448Q1308 208 1154.5 91.5Q1001 -25 765 -25Q473 -25 285.0 174.5Q97 374 97 720Q97 1086 286.0 1288.5Q475 1491 783 1491Q1052 1491 1220 1332Q1320 1238 1370 1062L1077 992Q1051 1106 968.5 1172.0Q886 1238 768 1238Q605 1238 503.5 1121.0Q402 1004 402 742Q402 464 502.0 346.0Q602 228 762 228Q880 228 965.0 303.0Q1050 378 1087 539Z" transform="translate(8.868 0) scale(0.011719 -0.011719)" /><path d="M149 0V1466H1236V1218H445V893H1181V646H445V247H1264V0Z" transform="translate(28.400 0) scale(0.011719 -0.011719)" /><path d="M1087 539 1374 448Q1308 208 1154.5 91.5Q1001 -25 765 -25Q473 -25 285.0 174.5Q97 374 97 720Q97 1086 286.0 1288.5Q475 1491 783 1491Q1052 1491 1220 1332Q1320 1238 1370 1062L1077 992Q1051 1106 968.5 1172.0Q886 1238 768 1238Q605 1238 503.5 1121.0Q402 1004 402 742Q402 464 502.0 346.0Q602 228 762 228Q880 228 965.0 303.0Q1050 378 1087 539Z" transform="translate(55.476 0) scale(0.011719 -0.011719)" /><path d="M89 724Q89 948 156 1100Q206 1212 292.5 1301.0Q379 1390 482 1433Q619 1491 798 1491Q1122 1491 1316.5 1290.0Q1511 1089 1511 731Q1511 376 1318.0 175.5Q1125 -25 802 -25Q475 -25 282.0 174.5Q89 374 89 724ZM394 734Q394 485 509.0 356.5Q624 228 801 228Q978 228 1091.5 355.5Q1205 483 1205 738Q1205 990 1094.5 1114.0Q984 1238 801 1238Q618 1238 506.0 1112.5Q394 987 394 734Z" transform="translate(75.008 0) scale(0.011719 -0.011719)" /><path d="M157 0V1454H453V247H1189V0Z" transform="translate(95.876 0) scale(0.011719 -0.011719)" /><path d="M148 1466H689Q872 1466 968 1438Q1097 1400 1189.0 1303.0Q1281 1206 1329.0 1065.5Q1377 925 1377 719Q1377 538 1332 407Q1277 247 1175 148Q1098 73 967 31Q869 0 705 0H148ZM444 1218V247H665Q789 247 844 261Q916 279 963.5 322.0Q1011 365 1041.0 463.5Q1071 562 1071 732Q1071 902 1041.0 993.0Q1011 1084 957.0 1135.0Q903 1186 820 1204Q758 1218 577 1218Z" transform="translate(112.736 0) scale(0.011719 -0.011719)" /></g></svg>