<svg xmlns="http://www.w3.org/2000/svg" viewBox="0 0 420 560" role="img" aria-labelledby="title desc"><title id="title">Bolsa Canova</title><desc id="desc">Bolsa kraft con identidad Canova sobre fondo transparente.</desc><defs><filter id="grain" x="-4%" y="-4%" width="108%" height="108%" color-interpolation-filters="sRGB">
      <feTurbulence type="fractalNoise" baseFrequency=".65" numOctaves="3" seed="12" result="noise" />
      <feColorMatrix in="noise" type="matrix" values="0 0 0 0 .25 0 0 0 0 .18 0 0 0 0 .08 0 0 0 .18 0" result="coloredGrain" />
      <feComposite in="coloredGrain" in2="SourceAlpha" operator="in" result="clippedGrain" />
      <feBlend in="SourceGraphic" in2="clippedGrain" mode="multiply" />
    </filter>
    <mask id="topBunMask" maskUnits="userSpaceOnUse" x="0" y="0" width="1200" height="1200">
      <path fill="#FFFFFF" d="M202 499C195 330 278 194 420 128C532 76 666 72 786 112C940 163 1036 298 1074 435C1083 467 1064 496 1033 496H854C824 496 805 478 786 448C746 385 664 365 598 385C542 402 503 435 477 485C464 511 445 529 414 529H228C212 529 202 518 202 499Z" />
      <g fill="#000000">
        <ellipse cx="375" cy="278" rx="23" ry="10" transform="rotate(-41 375 278)" />
        <ellipse cx="485" cy="229" rx="23" ry="10" transform="rotate(-25 485 229)" />
        <ellipse cx="580" cy="169" rx="23" ry="10" transform="rotate(-12 580 169)" />
        <ellipse cx="763" cy="185" rx="23" ry="10" transform="rotate(12 763 185)" />
        <ellipse cx="879" cy="252" rx="23" ry="10" transform="rotate(27 879 252)" />
        <ellipse cx="651" cy="253" rx="23" ry="10" transform="rotate(17 651 253)" />
      </g>
    </mask>
  <g id="canova-mark"><g transform="translate(0 35)">
    <path fill="#FFC72C" filter="url(#grain)" mask="url(#topBunMask)" d="M202 499C195 330 278 194 420 128C532 76 666 72 786 112C940 163 1036 298 1074 435C1083 467 1064 496 1033 496H854C824 496 805 478 786 448C746 385 664 365 598 385C542 402 503 435 477 485C464 511 445 529 414 529H228C212 529 202 518 202 499Z" />
  </g>
  <path fill="#FFC72C" filter="url(#grain)" d="M228 618C286 585 342 608 401 620C462 632 504 606 560 603C631 597 674 619 734 608C801 596 859 571 923 578C975 583 1024 600 1046 622C1060 637 1054 660 1032 669C969 693 904 673 842 673C775 674 724 690 663 682C597 674 555 652 493 661C426 671 377 690 317 679C268 671 229 654 214 641C206 633 213 624 228 618Z" />
  <path fill="#FFC72C" filter="url(#grain)" d="M226 720C365 717 503 722 641 716C777 710 902 713 1032 719C1052 720 1064 730 1064 746C1064 763 1050 775 1029 776C895 780 772 777 638 780C499 783 366 779 228 781C209 781 197 770 197 753C197 735 208 722 226 720Z" />
  <path fill="#FFC72C" filter="url(#grain)" d="M230 807H412C448 807 469 825 487 852C520 900 566 928 624 931C695 935 756 902 789 847C808 817 830 806 862 806H1019C1059 806 1080 842 1066 875C1014 1000 916 1091 779 1128C657 1162 531 1154 420 1114C317 1077 245 999 215 892C202 846 208 807 230 807Z" />
</g><filter id="pack-grain" x="-5%" y="-5%" width="110%" height="110%"><feTurbulence type="fractalNoise" baseFrequency=".32" numOctaves="2" seed="23" result="noise" /><feColorMatrix in="noise" type="matrix" values="0 0 0 0 .12 0 0 0 0 .08 0 0 0 0 .03 0 0 0 .14 0" result="grain" /><feComposite in="grain" in2="SourceAlpha" operator="in" result="clipped" /><feBlend in="SourceGraphic" in2="clipped" mode="multiply" /></filter></defs><path d="M119 106C119 31 301 31 301 106" fill="none" stroke="#7A532F" stroke-width="22" stroke-linecap="round" /><path d="M55 102Q210 82 365 102L392 521Q210 548 28 521Z" fill="#C69A63" stroke="#0D0D0D" stroke-width="7" stroke-linejoin="round" filter="url(#pack-grain)" /><path d="M55 102Q210 126 365 102" fill="none" stroke="#A87948" stroke-width="8" /><circle cx="210" cy="255" r="102" fill="#111111" /><circle cx="210" cy="255" r="88" fill="none" stroke="#F2E9D8" stroke-width="5" /><use href="#canova-mark" transform="translate(143 188) rotate(0 67 67) scale(0.111667)" /><g fill="#0D0D0D" aria-label="HANDLE" transform="translate(118.753 407) scale(1.000000 1)"><path d="M150 0V1466H446V889H1026V1466H1322V0H1026V641H446V0Z" transform="translate(0.000 0) scale(0.020508 -0.020508)" /><path d="M1471 0H1149L1021 333H435L314 0H0L571 1466H884ZM926 580 724 1124 526 580Z" transform="translate(31.831 0) scale(0.020508 -0.020508)" /><path d="M152 0V1466H440L1040 487V1466H1315V0H1018L427 956V0Z" transform="translate(63.662 0) scale(0.020508 -0.020508)" /><path d="M148 1466H689Q872 1466 968 1438Q1097 1400 1189.0 1303.0Q1281 1206 1329.0 1065.5Q1377 925 1377 719Q1377 538 1332 407Q1277 247 1175 148Q1098 73 967 31Q869 0 705 0H148ZM444 1218V247H665Q789 247 844 261Q916 279 963.5 322.0Q1011 365 1041.0 463.5Q1071 562 1071 732Q1071 902 1041.0 993.0Q1011 1084 957.0 1135.0Q903 1186 820 1204Q758 1218 577 1218Z" transform="translate(95.493 0) scale(0.020508 -0.020508)" /><path d="M157 0V1454H453V247H1189V0Z" transform="translate(127.324 0) scale(0.020508 -0.020508)" /><path d="M149 0V1466H1236V1218H445V893H1181V646H445V247H1264V0Z" transform="translate(154.479 0) scale(0.020508 -0.020508)" /></g><g fill="#E6392E" aria-label="WITH HUNGER." transform="translate(77.4046 454) scale(1.000000 1)"><path d="M357 0 7 1466H310L531 459L799 1466H1151L1408 442L1633 1466H1931L1575 0H1261L969 1096L678 0Z" transform="translate(0.000 0) scale(0.016602 -0.016602)" /><path d="M140 0V1466H436V0Z" transform="translate(33.191 0) scale(0.016602 -0.016602)" /><path d="M479 0V1218H44V1466H1209V1218H775V0Z" transform="translate(43.737 0) scale(0.016602 -0.016602)" /><path d="M150 0V1466H446V889H1026V1466H1322V0H1026V641H446V0Z" transform="translate(65.606 0) scale(0.016602 -0.016602)" /><path d="M150 0V1466H446V889H1026V1466H1322V0H1026V641H446V0Z" transform="translate(101.806 0) scale(0.016602 -0.016602)" /><path d="M147 1466H443V672Q443 483 454 427Q473 337 544.5 282.5Q616 228 740 228Q866 228 930.0 279.5Q994 331 1007.0 406.0Q1020 481 1020 655V1466H1316V696Q1316 432 1292.0 323.0Q1268 214 1203.5 139.0Q1139 64 1031.0 19.5Q923 -25 749 -25Q539 -25 430.5 23.5Q322 72 259.0 149.5Q196 227 176 312Q147 438 147 684Z" transform="translate(127.459 0) scale(0.016602 -0.016602)" /><path d="M152 0V1466H440L1040 487V1466H1315V0H1018L427 956V0Z" transform="translate(153.113 0) scale(0.016602 -0.016602)" /><path d="M831 539V786H1469V202Q1376 112 1199.5 43.5Q1023 -25 842 -25Q612 -25 441.0 71.5Q270 168 184.0 347.5Q98 527 98 738Q98 967 194.0 1145.0Q290 1323 475 1418Q616 1491 826 1491Q1099 1491 1252.5 1376.5Q1406 1262 1450 1060L1156 1005Q1125 1113 1039.5 1175.5Q954 1238 826 1238Q632 1238 517.5 1115.0Q403 992 403 750Q403 489 519.0 358.5Q635 228 823 228Q916 228 1009.5 264.5Q1103 301 1170 353V539Z" transform="translate(178.767 0) scale(0.016602 -0.016602)" /><path d="M149 0V1466H1236V1218H445V893H1181V646H445V247H1264V0Z" transform="translate(206.313 0) scale(0.016602 -0.016602)" /><path d="M150 0V1466H773Q1008 1466 1114.5 1426.5Q1221 1387 1285.0 1286.0Q1349 1185 1349 1055Q1349 890 1252.0 782.5Q1155 675 962 647Q1058 591 1120.5 524.0Q1183 457 1289 286L1468 0H1114L900 319Q786 490 744.0 534.5Q702 579 655.0 595.5Q608 612 506 612H446V0ZM446 846H665Q878 846 931.0 864.0Q984 882 1014.0 926.0Q1044 970 1044 1036Q1044 1110 1004.5 1155.5Q965 1201 893 1213Q857 1218 677 1218H446Z" transform="translate(230.091 0) scale(0.016602 -0.016602)" /><path d="M147 0V281H428V0Z" transform="translate(255.745 0) scale(0.016602 -0.016602)" /></g></svg>