<svg xmlns="http://www.w3.org/2000/svg" viewBox="0 0 1200 1200" role="img" aria-labelledby="title description">
  <title id="title">Isotipo Canova Burgers</title>
  <desc id="description">Una letra C construida como hamburguesa con panes crema, queso amarillo, carne roja y textura sutil.</desc>
  <defs>
    <filter id="texture" x="-5%" y="-5%" width="110%" height="110%">
      <feTurbulence type="fractalNoise" baseFrequency="0.9" numOctaves="2" seed="16" result="noise"/>
      <feColorMatrix in="noise" type="saturate" values="0" result="mono"/>
      <feComponentTransfer in="mono" result="grain"><feFuncA type="table" tableValues="0 0.12"/></feComponentTransfer>
      <feBlend in="SourceGraphic" in2="grain" mode="multiply"/>
    </filter>
    <clipPath id="top-half"><rect x="0" y="0" width="1200" height="502"/></clipPath>
    <clipPath id="bottom-half"><rect x="0" y="698" width="1200" height="502"/></clipPath>
  </defs>
  <g filter="url(#texture)">
    <path fill="#F2E9D8" clip-path="url(#top-half)" d="M963 865A470 470 0 1 1 963 335L824 444A253 253 0 1 0 824 756Z"/>
    <path fill="#F2E9D8" clip-path="url(#bottom-half)" d="M963 865A470 470 0 1 1 963 335L824 444A253 253 0 1 0 824 756Z"/>
    <path fill="#FFC72C" d="M188 555c92-32 193 28 290-1 73-22 141-23 202-3 14 5 17 29 3 35-90 39-193-5-285 18-89 22-160-21-215-9-22 5-29-32 5-40Z"/>
    <path fill="#E6392E" d="M174 640c112-4 220 0 328-6 127-7 250-1 367-4 86-2 144 1 181 10 23 6 22 45-2 49-120 17-242 6-363 7-185 3-352 6-512 1-22-1-23-56 1-57Z"/>
  </g>
  <g fill="#0D0D0D">
    <ellipse cx="360" cy="203" rx="20" ry="9" transform="rotate(-30 360 203)"/>
    <ellipse cx="475" cy="147" rx="20" ry="9" transform="rotate(15 475 147)"/>
    <ellipse cx="603" cy="123" rx="20" ry="9" transform="rotate(-12 603 123)"/>
    <ellipse cx="747" cy="156" rx="20" ry="9" transform="rotate(14 747 156)"/>
    <ellipse cx="852" cy="218" rx="20" ry="9" transform="rotate(-25 852 218)"/>
    <ellipse cx="558" cy="247" rx="20" ry="9" transform="rotate(19 558 247)"/>
  </g>
</svg>