<svg xmlns="http://www.w3.org/2000/svg" viewBox="0 0 1800 600" role="img" aria-labelledby="title">
  <title id="title">Canova Burgers horizontal logo</title>
  <rect width="1800" height="600" fill="#0D0D0D"/>
  <g transform="translate(50 35) scale(2.65)">
    <defs>
      <clipPath id="t"><rect width="200" height="86"/></clipPath>
      <clipPath id="b"><rect y="114" width="200" height="86"/></clipPath>
    </defs>
    <path d="M161.46 148.02A78 78 0 1 1 161.46 51.98L133.88 73.53A43 43 0 1 0 133.88 126.47Z" fill="#FFC72C" clip-path="url(#t)"/>
    <path d="M161.46 148.02A78 78 0 1 1 161.46 51.98L133.88 73.53A43 43 0 1 0 133.88 126.47Z" fill="#FFC72C" clip-path="url(#b)"/>
    <path d="M31 91c23-5 49 5 73 0 17-3 33-3 46 0 3 1 4 6 1 8-22 5-47 0-69 3-22 2-39-3-51-1-5 1-6-7 0-10Z" fill="#FFC72C"/>
    <rect x="29" y="103" width="121" height="9" rx="4.5" fill="#E6392E"/>
  </g>
  <text x="650" y="345" fill="#F2E9D8" font-family="Noto Sans Display,Arial Narrow,sans-serif" font-size="250" font-weight="900" letter-spacing="-8">CANOVA</text>
  <rect x="720" y="410" width="70" height="12" rx="6" fill="#E6392E"/>
  <rect x="1570" y="410" width="70" height="12" rx="6" fill="#E6392E"/>
  <text x="1180" y="470" text-anchor="middle" fill="#FFC72C" font-family="Inter,Montserrat,Arial,sans-serif" font-size="72" font-weight="800" letter-spacing="18">BURGERS</text>
</svg>
