<svg xmlns="http://www.w3.org/2000/svg" viewBox="0 0 1000 1000" role="img" aria-labelledby="title desc"><title id="title">Sello circular Canova blanco y amarillo</title><desc id="desc">Sello circular Canova Burgers con isotipo actualizado y fondo transparente.</desc><defs><filter id="grain" x="-4%" y="-4%" width="108%" height="108%" color-interpolation-filters="sRGB">
      <feTurbulence type="fractalNoise" baseFrequency=".65" numOctaves="3" seed="12" result="noise" />
      <feColorMatrix in="noise" type="matrix" values="0 0 0 0 .25 0 0 0 0 .18 0 0 0 0 .08 0 0 0 .18 0" result="coloredGrain" />
      <feComposite in="coloredGrain" in2="SourceAlpha" operator="in" result="clippedGrain" />
      <feBlend in="SourceGraphic" in2="clippedGrain" mode="multiply" />
    </filter>
    <mask id="topBunMask" maskUnits="userSpaceOnUse" x="0" y="0" width="1200" height="1200">
      <path fill="#FFFFFF" d="M202 499C195 330 278 194 420 128C532 76 666 72 786 112C940 163 1036 298 1074 435C1083 467 1064 496 1033 496H854C824 496 805 478 786 448C746 385 664 365 598 385C542 402 503 435 477 485C464 511 445 529 414 529H228C212 529 202 518 202 499Z" />
      <g fill="#000000">
        <ellipse cx="375" cy="278" rx="23" ry="10" transform="rotate(-41 375 278)" />
        <ellipse cx="485" cy="229" rx="23" ry="10" transform="rotate(-25 485 229)" />
        <ellipse cx="580" cy="169" rx="23" ry="10" transform="rotate(-12 580 169)" />
        <ellipse cx="763" cy="185" rx="23" ry="10" transform="rotate(12 763 185)" />
        <ellipse cx="879" cy="252" rx="23" ry="10" transform="rotate(27 879 252)" />
        <ellipse cx="651" cy="253" rx="23" ry="10" transform="rotate(17 651 253)" />
      </g>
    </mask>
  </defs><circle cx="500" cy="500" r="450" fill="none" stroke="#FFFFFF" stroke-width="22" /><circle cx="500" cy="500" r="405" fill="none" stroke="#FFFFFF" stroke-width="7" /><g fill="#FFFFFF" aria-label="CANOVA BURGERS"><path d="M1087 539 1374 448Q1308 208 1154.5 91.5Q1001 -25 765 -25Q473 -25 285.0 174.5Q97 374 97 720Q97 1086 286.0 1288.5Q475 1491 783 1491Q1052 1491 1220 1332Q1320 1238 1370 1062L1077 992Q1051 1106 968.5 1172.0Q886 1238 768 1238Q605 1238 503.5 1121.0Q402 1004 402 742Q402 464 502.0 346.0Q602 228 762 228Q880 228 965.0 303.0Q1050 378 1087 539Z" transform="translate(210.750 351.813) rotate(-62.873) scale(0.034180 -0.034180) translate(-739.500 0)" /><path d="M1471 0H1149L1021 333H435L314 0H0L571 1466H884ZM926 580 724 1124 526 580Z" transform="translate(241.377 303.177) rotate(-52.727) scale(0.034180 -0.034180) translate(-739.500 0)" /><path d="M152 0V1466H440L1040 487V1466H1315V0H1018L427 956V0Z" transform="translate(280.094 260.696) rotate(-42.581) scale(0.034180 -0.034180) translate(-739.500 0)" /><path d="M89 724Q89 948 156 1100Q206 1212 292.5 1301.0Q379 1390 482 1433Q619 1491 798 1491Q1122 1491 1316.5 1290.0Q1511 1089 1511 731Q1511 376 1318.0 175.5Q1125 -25 802 -25Q475 -25 282.0 174.5Q89 374 89 724ZM394 734Q394 485 509.0 356.5Q624 228 801 228Q978 228 1091.5 355.5Q1205 483 1205 738Q1205 990 1094.5 1114.0Q984 1238 801 1238Q618 1238 506.0 1112.5Q394 987 394 734Z" transform="translate(327.336 224.660) rotate(-32.092) scale(0.034180 -0.034180) translate(-796.500 0)" /><path d="M523 0 -1 1466H320L691 381L1050 1466H1364L839 0Z" transform="translate(378.555 198.543) rotate(-21.943) scale(0.034180 -0.034180) translate(-683.000 0)" /><path d="M1471 0H1149L1021 333H435L314 0H0L571 1466H884ZM926 580 724 1124 526 580Z" transform="translate(431.669 182.264) rotate(-12.137) scale(0.034180 -0.034180) translate(-739.500 0)" /><path d="M150 1466H736Q910 1466 995.5 1451.5Q1081 1437 1148.5 1391.0Q1216 1345 1261.0 1268.5Q1306 1192 1306 1097Q1306 994 1250.5 908.0Q1195 822 1100 779Q1234 740 1306.0 646.0Q1378 552 1378 425Q1378 325 1331.5 230.5Q1285 136 1204.5 79.5Q1124 23 1006 10Q932 2 649 0H150ZM446 1222V883H640Q813 883 855 888Q931 897 974.5 940.5Q1018 984 1018 1055Q1018 1123 980.5 1165.5Q943 1208 869 1217Q825 1222 616 1222ZM446 639V247H720Q880 247 923 256Q989 268 1030.5 314.5Q1072 361 1072 439Q1072 505 1040.0 551.0Q1008 597 947.5 618.0Q887 639 685 639Z" transform="translate(515.150 175.353) rotate(2.672) scale(0.034180 -0.034180) translate(-739.500 0)" /><path d="M147 1466H443V672Q443 483 454 427Q473 337 544.5 282.5Q616 228 740 228Q866 228 930.0 279.5Q994 331 1007.0 406.0Q1020 481 1020 655V1466H1316V696Q1316 432 1292.0 323.0Q1268 214 1203.5 139.0Q1139 64 1031.0 19.5Q923 -25 749 -25Q539 -25 430.5 23.5Q322 72 259.0 149.5Q196 227 176 312Q147 438 147 684Z" transform="translate(572.102 183.099) rotate(12.818) scale(0.034180 -0.034180) translate(-739.500 0)" /><path d="M150 0V1466H773Q1008 1466 1114.5 1426.5Q1221 1387 1285.0 1286.0Q1349 1185 1349 1055Q1349 890 1252.0 782.5Q1155 675 962 647Q1058 591 1120.5 524.0Q1183 457 1289 286L1468 0H1114L900 319Q786 490 744.0 534.5Q702 579 655.0 595.5Q608 612 506 612H446V0ZM446 846H665Q878 846 931.0 864.0Q984 882 1014.0 926.0Q1044 970 1044 1036Q1044 1110 1004.5 1155.5Q965 1201 893 1213Q857 1218 677 1218H446Z" transform="translate(626.799 200.756) rotate(22.964) scale(0.034180 -0.034180) translate(-739.500 0)" /><path d="M831 539V786H1469V202Q1376 112 1199.5 43.5Q1023 -25 842 -25Q612 -25 441.0 71.5Q270 168 184.0 347.5Q98 527 98 738Q98 967 194.0 1145.0Q290 1323 475 1418Q616 1491 826 1491Q1099 1491 1252.5 1376.5Q1406 1262 1450 1060L1156 1005Q1125 1113 1039.5 1175.5Q954 1238 826 1238Q632 1238 517.5 1115.0Q403 992 403 750Q403 489 519.0 358.5Q635 228 823 228Q916 228 1009.5 264.5Q1103 301 1170 353V539Z" transform="translate(679.159 228.842) rotate(33.453) scale(0.034180 -0.034180) translate(-796.500 0)" /><path d="M149 0V1466H1236V1218H445V893H1181V646H445V247H1264V0Z" transform="translate(724.137 264.654) rotate(43.603) scale(0.034180 -0.034180) translate(-683.000 0)" /><path d="M150 0V1466H773Q1008 1466 1114.5 1426.5Q1221 1387 1285.0 1286.0Q1349 1185 1349 1055Q1349 890 1252.0 782.5Q1155 675 962 647Q1058 591 1120.5 524.0Q1183 457 1289 286L1468 0H1114L900 319Q786 490 744.0 534.5Q702 579 655.0 595.5Q608 612 506 612H446V0ZM446 846H665Q878 846 931.0 864.0Q984 882 1014.0 926.0Q1044 970 1044 1036Q1044 1110 1004.5 1155.5Q965 1201 893 1213Q857 1218 677 1218H446Z" transform="translate(760.943 306.264) rotate(53.408) scale(0.034180 -0.034180) translate(-739.500 0)" /><path d="M74 477 362 505Q388 360 467.5 292.0Q547 224 682 224Q825 224 897.5 284.5Q970 345 970 426Q970 478 939.5 514.5Q909 551 833 578Q781 596 596 642Q358 701 262 787Q127 908 127 1082Q127 1194 190.5 1291.5Q254 1389 373.5 1440.0Q493 1491 662 1491Q938 1491 1077.5 1370.0Q1217 1249 1224 1047L928 1034Q909 1147 846.5 1196.5Q784 1246 659 1246Q530 1246 457 1193Q410 1159 410 1102Q410 1050 454 1013Q510 966 726.0 915.0Q942 864 1045.5 809.5Q1149 755 1207.5 660.5Q1266 566 1266 427Q1266 301 1196.0 191.0Q1126 81 998.0 27.5Q870 -26 679 -26Q401 -26 252.0 102.5Q103 231 74 477Z" transform="translate(790.126 353.535) rotate(63.214) scale(0.034180 -0.034180) translate(-683.000 0)" /></g><g fill="#FFFFFF" aria-label="BIG FLAVOR · NO EXCUSES"><path d="M150 1466H736Q910 1466 995.5 1451.5Q1081 1437 1148.5 1391.0Q1216 1345 1261.0 1268.5Q1306 1192 1306 1097Q1306 994 1250.5 908.0Q1195 822 1100 779Q1234 740 1306.0 646.0Q1378 552 1378 425Q1378 325 1331.5 230.5Q1285 136 1204.5 79.5Q1124 23 1006 10Q932 2 649 0H150ZM446 1222V883H640Q813 883 855 888Q931 897 974.5 940.5Q1018 984 1018 1055Q1018 1123 980.5 1165.5Q943 1208 869 1217Q825 1222 616 1222ZM446 639V247H720Q880 247 923 256Q989 268 1030.5 314.5Q1072 361 1072 439Q1072 505 1040.0 551.0Q1008 597 947.5 618.0Q887 639 685 639Z" transform="translate(226.589 710.407) rotate(52.419) scale(0.020996 -0.020996) translate(-739.500 0)" /><path d="M140 0V1466H436V0Z" transform="translate(242.540 729.650) rotate(48.268) scale(0.020996 -0.020996) translate(-284.500 0)" /><path d="M831 539V786H1469V202Q1376 112 1199.5 43.5Q1023 -25 842 -25Q612 -25 441.0 71.5Q270 168 184.0 347.5Q98 527 98 738Q98 967 194.0 1145.0Q290 1323 475 1418Q616 1491 826 1491Q1099 1491 1252.5 1376.5Q1406 1262 1450 1060L1156 1005Q1125 1113 1039.5 1175.5Q954 1238 826 1238Q632 1238 517.5 1115.0Q403 992 403 750Q403 489 519.0 358.5Q635 228 823 228Q916 228 1009.5 264.5Q1103 301 1170 353V539Z" transform="translate(260.703 748.519) rotate(43.917) scale(0.020996 -0.020996) translate(-796.500 0)" /><path d="M151 0V1466H1156V1218H447V871H1059V623H447V0Z" transform="translate(298.131 779.775) rotate(35.812) scale(0.020996 -0.020996) translate(-625.500 0)" /><path d="M157 0V1454H453V247H1189V0Z" transform="translate(322.990 796.129) rotate(30.869) scale(0.020996 -0.020996) translate(-625.500 0)" /><path d="M1471 0H1149L1021 333H435L314 0H0L571 1466H884ZM926 580 724 1124 526 580Z" transform="translate(351.323 811.320) rotate(25.528) scale(0.020996 -0.020996) translate(-739.500 0)" /><path d="M523 0 -1 1466H320L691 381L1050 1466H1364L839 0Z" transform="translate(382.081 824.222) rotate(19.986) scale(0.020996 -0.020996) translate(-683.000 0)" /><path d="M89 724Q89 948 156 1100Q206 1212 292.5 1301.0Q379 1390 482 1433Q619 1491 798 1491Q1122 1491 1316.5 1290.0Q1511 1089 1511 731Q1511 376 1318.0 175.5Q1125 -25 802 -25Q475 -25 282.0 174.5Q89 374 89 724ZM394 734Q394 485 509.0 356.5Q624 228 801 228Q978 228 1091.5 355.5Q1205 483 1205 738Q1205 990 1094.5 1114.0Q984 1238 801 1238Q618 1238 506.0 1112.5Q394 987 394 734Z" transform="translate(415.100 834.390) rotate(14.246) scale(0.020996 -0.020996) translate(-796.500 0)" /><path d="M150 0V1466H773Q1008 1466 1114.5 1426.5Q1221 1387 1285.0 1286.0Q1349 1185 1349 1055Q1349 890 1252.0 782.5Q1155 675 962 647Q1058 591 1120.5 524.0Q1183 457 1289 286L1468 0H1114L900 319Q786 490 744.0 534.5Q702 579 655.0 595.5Q608 612 506 612H446V0ZM446 846H665Q878 846 931.0 864.0Q984 882 1014.0 926.0Q1044 970 1044 1036Q1044 1110 1004.5 1155.5Q965 1201 893 1213Q857 1218 677 1218H446Z" transform="translate(450.144 841.379) rotate(8.309) scale(0.020996 -0.020996) translate(-739.500 0)" /><path d="M200 573V854H481V573Z" transform="translate(491.602 844.898) rotate(1.395) scale(0.020996 -0.020996) translate(-341.000 0)" /><path d="M152 0V1466H440L1040 487V1466H1315V0H1018L427 956V0Z" transform="translate(533.183 843.400) rotate(-5.519) scale(0.020996 -0.020996) translate(-739.500 0)" /><path d="M89 724Q89 948 156 1100Q206 1212 292.5 1301.0Q379 1390 482 1433Q619 1491 798 1491Q1122 1491 1316.5 1290.0Q1511 1089 1511 731Q1511 376 1318.0 175.5Q1125 -25 802 -25Q475 -25 282.0 174.5Q89 374 89 724ZM394 734Q394 485 509.0 356.5Q624 228 801 228Q978 228 1091.5 355.5Q1205 483 1205 738Q1205 990 1094.5 1114.0Q984 1238 801 1238Q618 1238 506.0 1112.5Q394 987 394 734Z" transform="translate(568.526 838.126) rotate(-11.457) scale(0.020996 -0.020996) translate(-796.500 0)" /><path d="M149 0V1466H1236V1218H445V893H1181V646H445V247H1264V0Z" transform="translate(616.650 824.681) rotate(-19.762) scale(0.020996 -0.020996) translate(-683.000 0)" /><path d="M0 0 501 765 47 1466H393L687 995L975 1466H1318L862 754L1363 0H1006L681 507L355 0Z" transform="translate(646.384 812.405) rotate(-25.106) scale(0.020996 -0.020996) translate(-683.000 0)" /><path d="M1087 539 1374 448Q1308 208 1154.5 91.5Q1001 -25 765 -25Q473 -25 285.0 174.5Q97 374 97 720Q97 1086 286.0 1288.5Q475 1491 783 1491Q1052 1491 1220 1332Q1320 1238 1370 1062L1077 992Q1051 1106 968.5 1172.0Q886 1238 768 1238Q605 1238 503.5 1121.0Q402 1004 402 742Q402 464 502.0 346.0Q602 228 762 228Q880 228 965.0 303.0Q1050 378 1087 539Z" transform="translate(675.867 796.809) rotate(-30.648) scale(0.020996 -0.020996) translate(-739.500 0)" /><path d="M147 1466H443V672Q443 483 454 427Q473 337 544.5 282.5Q616 228 740 228Q866 228 930.0 279.5Q994 331 1007.0 406.0Q1020 481 1020 655V1466H1316V696Q1316 432 1292.0 323.0Q1268 214 1203.5 139.0Q1139 64 1031.0 19.5Q923 -25 749 -25Q539 -25 430.5 23.5Q322 72 259.0 149.5Q196 227 176 312Q147 438 147 684Z" transform="translate(704.663 777.737) rotate(-36.386) scale(0.020996 -0.020996) translate(-739.500 0)" /><path d="M74 477 362 505Q388 360 467.5 292.0Q547 224 682 224Q825 224 897.5 284.5Q970 345 970 426Q970 478 939.5 514.5Q909 551 833 578Q781 596 596 642Q358 701 262 787Q127 908 127 1082Q127 1194 190.5 1291.5Q254 1389 373.5 1440.0Q493 1491 662 1491Q938 1491 1077.5 1370.0Q1217 1249 1224 1047L928 1034Q909 1147 846.5 1196.5Q784 1246 659 1246Q530 1246 457 1193Q410 1159 410 1102Q410 1050 454 1013Q510 966 726.0 915.0Q942 864 1045.5 809.5Q1149 755 1207.5 660.5Q1266 566 1266 427Q1266 301 1196.0 191.0Q1126 81 998.0 27.5Q870 -26 679 -26Q401 -26 252.0 102.5Q103 231 74 477Z" transform="translate(730.526 756.676) rotate(-41.928) scale(0.020996 -0.020996) translate(-683.000 0)" /><path d="M149 0V1466H1236V1218H445V893H1181V646H445V247H1264V0Z" transform="translate(753.432 734.089) rotate(-47.272) scale(0.020996 -0.020996) translate(-683.000 0)" /><path d="M74 477 362 505Q388 360 467.5 292.0Q547 224 682 224Q825 224 897.5 284.5Q970 345 970 426Q970 478 939.5 514.5Q909 551 833 578Q781 596 596 642Q358 701 262 787Q127 908 127 1082Q127 1194 190.5 1291.5Q254 1389 373.5 1440.0Q493 1491 662 1491Q938 1491 1077.5 1370.0Q1217 1249 1224 1047L928 1034Q909 1147 846.5 1196.5Q784 1246 659 1246Q530 1246 457 1193Q410 1159 410 1102Q410 1050 454 1013Q510 966 726.0 915.0Q942 864 1045.5 809.5Q1149 755 1207.5 660.5Q1266 566 1266 427Q1266 301 1196.0 191.0Q1126 81 998.0 27.5Q870 -26 679 -26Q401 -26 252.0 102.5Q103 231 74 477Z" transform="translate(774.133 709.466) rotate(-52.616) scale(0.020996 -0.020996) translate(-683.000 0)" /></g><g transform="translate(286 300) scale(.36)"><g transform="translate(0 35)">
    <path fill="#FFC72C" filter="url(#grain)" mask="url(#topBunMask)" d="M202 499C195 330 278 194 420 128C532 76 666 72 786 112C940 163 1036 298 1074 435C1083 467 1064 496 1033 496H854C824 496 805 478 786 448C746 385 664 365 598 385C542 402 503 435 477 485C464 511 445 529 414 529H228C212 529 202 518 202 499Z" />
  </g>
  <path fill="#FFC72C" filter="url(#grain)" d="M228 618C286 585 342 608 401 620C462 632 504 606 560 603C631 597 674 619 734 608C801 596 859 571 923 578C975 583 1024 600 1046 622C1060 637 1054 660 1032 669C969 693 904 673 842 673C775 674 724 690 663 682C597 674 555 652 493 661C426 671 377 690 317 679C268 671 229 654 214 641C206 633 213 624 228 618Z" />
  <path fill="#FFC72C" filter="url(#grain)" d="M226 720C365 717 503 722 641 716C777 710 902 713 1032 719C1052 720 1064 730 1064 746C1064 763 1050 775 1029 776C895 780 772 777 638 780C499 783 366 779 228 781C209 781 197 770 197 753C197 735 208 722 226 720Z" />
  <path fill="#FFC72C" filter="url(#grain)" d="M230 807H412C448 807 469 825 487 852C520 900 566 928 624 931C695 935 756 902 789 847C808 817 830 806 862 806H1019C1059 806 1080 842 1066 875C1014 1000 916 1091 779 1128C657 1162 531 1154 420 1114C317 1077 245 999 215 892C202 846 208 807 230 807Z" />
</g><circle cx="123" cy="500" r="8" fill="#FFC72C" /><circle cx="877" cy="500" r="8" fill="#FFC72C" /></svg>
